<?xml version="1.0" encoding="UTF-8" standalone="no"?><!DOCTYPE svg PUBLIC "-//W3C//DTD SVG 1.1//EN" "http://www.w3.org/Graphics/SVG/1.1/DTD/svg11.dtd"><svg width="100%" height="100%" viewBox="0 0 600 600" version="1.1" xmlns="http://www.w3.org/2000/svg" xmlns:xlink="http://www.w3.org/1999/xlink" xml:space="preserve" xmlns:serif="http://www.serif.com/" style="fill-rule:evenodd;clip-rule:evenodd;stroke-linecap:round;stroke-linejoin:round;stroke-miterlimit:1.5;"><path d="M133.857,133.484c2.146,12.058 3.997,40.425 4.014,53.993c0.018,14.784 3.794,39.594 4.261,53.808c0.317,9.64 1.792,33.618 2.804,42.92c0.278,2.557 1.439,14.908 1.128,26.334c-0.227,8.378 -0.902,19.805 -0.759,29.923c0.056,3.973 1.949,20.066 0.994,22.269" style="fill:none;stroke:#000;stroke-width:2.99px;"/><path d="M134.383,133.176c12.439,3.958 38.485,15.893 46.278,18.449c45.44,14.892 89.445,33.711 133.965,51.483c4.012,1.602 105.706,49.773 87.959,25.98" style="fill:none;stroke:#000;stroke-width:2.99px;"/><path d="M402.514,229.011c-10.158,-10.811 -115.881,-156.281 -120.345,-162.995" style="fill:none;stroke:#000;stroke-width:2.99px;"/><path d="M133.226,132.868c18.717,-9.964 145.128,-64.804 148.67,-66.514" style="fill:none;stroke:#000;stroke-width:2.99px;"/><path d="M404.176,235.017c-3.456,11.504 -1.024,15.416 0.188,30.4c0.764,9.44 0.577,16.909 1.763,29.722c1.174,12.69 3.614,31.555 5.013,45.8c1.554,15.832 -3.941,32.449 -2.359,47.879c1.194,11.658 9.708,26.15 7.857,36.068c-6.425,34.45 -2.03,29.676 -3.242,38.947" style="fill:none;stroke:#000;stroke-width:2.99px;"/><path d="M413.183,464.71c-12.793,-7.499 -28.803,-6.668 -42.148,-12.751c-50.431,-23.023 -175.039,-64.604 -224.702,-89.275" style="fill:none;stroke:#000;stroke-width:2.99px;"/><path d="M404.727,287.932c-12.18,5.359 -52.288,-12.844 -62.903,-15.108c-14.584,-3.095 -23.939,-8.855 -38.277,-13.937c-7.406,-2.633 -43.278,-11.457 -51.371,-13.952c-17.531,-5.39 -52.647,-24.764 -56.204,-26.735c-12.566,-6.976 -47.681,-15.015 -57.56,-23.377" style="fill:none;stroke:#000;stroke-width:2.99px;"/><path d="M411.012,352.443c-5.069,-4.25 -17.607,-5.22 -22.318,-7.731c-14.044,-7.484 -19.561,-10.718 -35.811,-13.275c-23.67,-3.711 -43.477,-7.453 -65.756,-13.659c-16.212,-4.513 -38.506,-5.575 -49.63,-15.339c-7.737,-6.792 -22.591,-15.924 -33.512,-18.742c-8.79,-2.264 -28.269,-8.501 -38.121,-11.735c-8.879,-2.926 -18.837,-11.334 -22.237,-10.564" style="fill:none;stroke:#000;stroke-width:2.99px;"/><path d="M408.14,380.379c0.039,-0.031 -15.791,-5.282 -20.809,-7.207c-16.79,-6.437 -27.729,-17.987 -51.609,-21.622c-12.783,-1.94 -33.683,-5.744 -52.298,-7.669c-8.892,-0.909 -21.098,-14.8 -41.578,-18.249c-7.188,-1.217 -26.077,-10.627 -31.379,-11.227c-10.578,-1.186 -18.908,-12.952 -31.211,-15.523c-8.551,-1.787 -23.207,-10.257 -32.736,-10.257" style="fill:none;stroke:#000;stroke-width:2.99px;"/><path d="M245.74,112.216c0.828,-15.585 21.913,-13.244 22.405,-4.681c0.146,2.556 4.533,-1.356 10.171,-0.925c6.004,0.462 7.34,8.717 7.061,12.367c-0.463,6.037 -7.891,11.827 -6.484,12.489c1.853,0.878 14.525,5.267 11.56,11.581c-4.139,8.809 -25.066,-2.741 -29.747,0.093c-2.188,1.309 -2.048,3.573 -6.067,6.529c-4.624,3.388 -20.724,0 -21.239,-8.716c-0.213,-3.619 1.042,-6.345 5.977,-7.808c0.506,-0.154 -9.377,-3.65 -9.353,-10.026c0.058,-14.845 15.596,-8.67 15.716,-10.903Z" style="fill:none;stroke:#000;stroke-width:2.99px;"/><path d="M252.872,113.818c4.896,-3.85 17.14,-0.462 18.429,5.621c2.37,11.196 -14.367,27.043 -20.417,12.967c-5.855,-13.645 1.988,-18.588 1.988,-18.588Z" style="fill:none;stroke:#000;stroke-width:2.99px;"/><path d="M263.271,119.593c-2.33,-0.801 -11.661,3.619 -12.829,4.45" style="fill:none;stroke:#000;stroke-width:2.99px;"/><path d="M257.781,126.092c-0.958,-1.571 -2.546,-8.948 -2.656,-9.702" style="fill:none;stroke:#000;stroke-width:2.99px;"/><path d="M256.373,120.898c-11.145,-13.947 10.752,-60.211 4.921,-85.161" style="fill:none;stroke:#000;stroke-width:3.01px;"/><path d="M410.485,332.152c151.275,38.137 171.226,70.086 167.518,110.291c-13.515,146.539 -420.589,111.638 -525.361,5.658c-22.57,-22.822 -51.894,-87.088 -7.717,-131.006c25.489,-25.339 71.135,-27.012 98.05,-27.746" style="fill:none;stroke:#000;stroke-width:2.98px;"/><path d="M143.687,315.221c-64.198,-1.709 -95.767,22.654 -90.175,74.429c11.31,104.706 482.77,171.219 495.546,43.136c4.347,-43.583 -101.919,-66.929 -136.728,-77.37" style="fill:none;stroke:#000;stroke-width:2.99px;"/><path d="M402.205,241.516c-1.526,-0.477 -8.839,-1.555 -9.7,-1.786c-6.36,-1.772 -9.431,0.877 -14.633,-0.771c-6.205,-1.971 -10.88,-6.113 -14.511,-7.653c-5.203,-2.218 -10.712,-3.758 -15.819,-6.268c-9.172,-4.513 -17.596,-11.504 -27.715,-12.675c-7.892,-0.908 -14.753,-4.404 -19.867,-7.838c-12.373,-8.301 -17.282,-5.668 -29.388,-11.828c-2.67,-1.355 -11.401,-5.79 -14.283,-6.36c-8.272,-1.632 -11.863,-4.651 -19.369,-7.638c-7.432,-2.973 -16.373,-4.035 -23.394,-7.931c-5.674,-3.157 -23.971,-9.749 -29.332,-11.304c-5.82,-1.694 -29.118,-9.779 -35.126,-11.473" style="fill:none;stroke:#000;stroke-width:2.99px;"/><path d="M149.522,148.099c-5.485,-1.617 -11.986,-3.989 -14.3,-5.298" style="fill:none;stroke:#000;stroke-width:2.99px;"/><path d="M132.986,132.252c0.759,-5.267 -0.509,-9.194 3.785,-11.473c3.828,-2.033 7.561,3.203 9.001,3.942c0.237,0.108 0.052,-10.133 3.42,-11.92c8.694,-4.589 12.363,4.466 12.363,4.466c0,0 -2.737,-9.317 2.758,-10.888c7.336,-2.094 10.412,6.145 10.6,5.945c0.574,-0.616 -1.638,-8.948 2.294,-10.796c5.29,-2.494 9.176,5.329 9.176,5.329c0,0 -2.069,-8.378 3.403,-10.041c4.327,-1.324 7.749,4.99 7.959,4.728c1.009,-1.294 -2.171,-6.915 0.964,-8.47c5.299,-2.618 6.115,4.466 7.602,5.082c0.909,0.369 -1.458,-6.437 1.28,-7.854c4.406,-2.28 8.129,5.251 8.051,4.358c-0.301,-3.465 -1.499,-8.039 2.208,-9.348c4.237,-1.478 6.494,6.576 6.339,5.098c-0.343,-3.281 -1.044,-8.193 2.937,-9.995c4.816,-2.187 7.517,5.159 7.525,4.743c0.042,-2.079 -0.125,-8.439 4.052,-10.072c4.534,-1.755 8.805,5.082 8.735,4.543c-0.38,-3.018 0.233,-8.485 3.526,-9.671c4.638,-1.679 8.33,5.436 8.323,5.375c-0.33,-2.865 -0.858,-8.008 3.344,-9.733c5.275,-2.172 7.371,3.665 8.466,4.635c0.189,0.17 -1.63,-6.991 2.301,-9.04c3.325,-1.724 6.72,0.493 7.858,3.974" style="fill:none;stroke:#000;stroke-width:2.99px;"/><path d="M275.072,146.081c-0.945,5.236 -5.426,10.087 -13.796,8.008c-1.992,-0.493 -3.555,-2.803 -5.198,-4.527" style="fill:none;stroke:#000;stroke-width:2.99px;"/><path d="M285.705,133.776c8.116,-3.988 4.086,-12.659 0.509,-13.629" style="fill:none;stroke:#000;stroke-width:2.99px;"/><path d="M275.582,106.349c0.293,-1.34 -3.678,-7.916 -9.437,-4.158" style="fill:none;stroke:#000;stroke-width:2.99px;"/><path d="M246.252,107.396c-1.715,-1.294 -9.934,-3.111 -9.072,4.743" style="fill:none;stroke:#000;stroke-width:2.99px;"/><path d="M231.264,128.109c-3.088,1.663 -3.831,7.13 1.641,9.548" style="fill:none;stroke:#000;stroke-width:2.99px;"/><path d="M383.777,250.71c-0.173,0.061 -0.737,1.617 -0.737,0.061" style="fill:none;stroke:#000;stroke-width:2.99px;"/><path d="M374.224,261.844c0.005,0.262 -0.022,0.077 0.552,0.077" style="fill:none;stroke:#000;stroke-width:2.99px;"/><path d="M369.629,248.846c0.042,0.031 0.967,-3.018 -0.363,-1.601" style="fill:none;stroke:#000;stroke-width:2.99px;"/><path d="M359.041,259.272c-0.152,-0.184 0.308,-0.539 0.308,-1.463" style="fill:none;stroke:#000;stroke-width:2.99px;"/><path d="M344.962,247.06c0.437,1.294 1.164,-2.541 1.164,-3.912" style="fill:none;stroke:#000;stroke-width:2.99px;"/><path d="M335.983,242.009c1.001,-0.17 -1.812,-2.557 -2.528,-1.802" style="fill:none;stroke:#000;stroke-width:2.99px;"/><path d="M322.5,250.879c-0.022,-0.031 -0.023,-0.108 -0.064,-0.108" style="fill:none;stroke:#000;stroke-width:2.99px;"/><path d="M317.379,224.329c0.217,0.077 0.098,1.001 0.098,1.217" style="fill:none;stroke:#000;stroke-width:2.99px;"/><path d="M337.659,262.784c0.512,-0.693 0.104,0.893 0.753,0.893" style="fill:none;stroke:#000;stroke-width:2.99px;"/><path d="M340.806,232.584c-0.122,0 0.241,0 0.361,0" style="fill:none;stroke:#000;stroke-width:2.99px;"/><path d="M394.802,269.806c-0.223,-0.308 0.358,0.339 0.358,-0.262" style="fill:none;stroke:#000;stroke-width:2.99px;"/><path d="M397.719,255.145c0.418,-0.585 0.367,-0.862 -0.355,-0.862" style="fill:none;stroke:#000;stroke-width:2.99px;"/><path d="M391.15,277.044c0.052,0.046 0.103,0.077 0.155,0.123" style="fill:none;stroke:#000;stroke-width:2.99px;"/><path d="M368.39,269.39c-0.365,0.247 0.325,0.878 0.325,1.325" style="fill:none;stroke:#000;stroke-width:2.99px;"/><path d="M360.649,243.718c-0.247,0.016 0.353,0.632 0.353,1.186" style="fill:none;stroke:#000;stroke-width:2.99px;"/><path d="M351.968,268.389c0.847,-0.077 1.32,-0.123 1.32,-1.186" style="fill:none;stroke:#000;stroke-width:2.99px;"/><path d="M316.207,223.621c0.359,0.354 -1.176,0.154 -1.485,0.154" style="fill:none;stroke:#000;stroke-width:2.99px;"/><path d="M312.049,236.403c-0.027,0.092 -0.039,-0.216 -0.082,-0.308" style="fill:none;stroke:#000;stroke-width:2.99px;"/><path d="M305.94,251.187c-0.011,0.062 -0.021,0.108 -0.033,0.17" style="fill:none;stroke:#000;stroke-width:2.99px;"/><path d="M293.447,232.106c-0.086,-0.046 1.441,-0.616 1.441,0.478" style="fill:none;stroke:#000;stroke-width:2.99px;"/><path d="M318.55,240.9c0.172,-0.647 1.222,-1.186 0.029,-2.449" style="fill:none;stroke:#000;stroke-width:2.99px;"/><path d="M282.215,205.172c0.003,-0.524 0.355,1.216 0,1.601" style="fill:none;stroke:#000;stroke-width:2.99px;"/><path d="M264.485,219.971c0.102,0.293 1.541,0.878 0.101,0.878" style="fill:none;stroke:#000;stroke-width:2.99px;"/><path d="M293.079,212.872c0.546,-0.832 0.634,0.354 1.258,0.354" style="fill:none;stroke:#000;stroke-width:2.99px;"/><path d="M278.724,229.704c0.363,-0.108 0.187,-0.123 0.187,0.539" style="fill:none;stroke:#000;stroke-width:2.99px;"/><path d="M271.191,208.837c0.02,0.924 0.448,1.447 -0.545,1.447" style="fill:none;stroke:#000;stroke-width:2.99px;"/><path d="M243.468,195.67c0.358,-0.108 0.181,-0.108 0.181,0.539" style="fill:none;stroke:#000;stroke-width:2.99px;"/><path d="M237.429,230.951c0.408,-0.323 0.16,0.817 0.16,1.048" style="fill:none;stroke:#000;stroke-width:2.99px;"/><path d="M260.694,240.669c0.067,0.246 0.757,-0.277 0.586,-0.462" style="fill:none;stroke:#000;stroke-width:2.99px;"/><path d="M280.677,243.641c-0.313,0.247 0.595,0.678 0.987,0.678" style="fill:none;stroke:#000;stroke-width:2.99px;"/><path d="M297.328,221.989c-1.027,0.154 1.125,0.616 1.416,0.616" style="fill:none;stroke:#000;stroke-width:2.99px;"/><path d="M254.355,214.981c-0.717,0 -0.195,0.586 -0.789,0.586" style="fill:none;stroke:#000;stroke-width:2.99px;"/><path d="M256.238,198.719c0.282,-0.555 0.083,0.985 0.083,1.016" style="fill:none;stroke:#000;stroke-width:2.99px;"/><path d="M279.596,222.081c-0.678,-0.277 0.292,-1.093 0.417,-1.232" style="fill:none;stroke:#000;stroke-width:2.99px;"/><path d="M234.145,213.657c0.328,0.354 0.138,1.432 0.138,1.91" style="fill:none;stroke:#000;stroke-width:2.99px;"/><path d="M221.949,190.926c0.397,0 0.214,-0.077 0.214,0.586" style="fill:none;stroke:#000;stroke-width:2.99px;"/><path d="M198.085,187.354c-0.227,0.077 0.827,0.646 -0.716,0.646" style="fill:none;stroke:#000;stroke-width:2.99px;"/><path d="M180.285,202.369c0.014,0.847 0.451,1.94 -0.546,0.878" style="fill:none;stroke:#000;stroke-width:2.99px;"/><path d="M159.569,163.206c-0.072,0.046 -0.143,0.092 -0.216,0.139" style="fill:none;stroke:#000;stroke-width:2.99px;"/><path d="M143.308,157.523c0.677,-0.369 1.086,0.555 0.068,0.555" style="fill:none;stroke:#000;stroke-width:2.99px;"/><path d="M146.936,185.321c-0.251,-0.262 0.083,0.323 -0.254,0.323" style="fill:none;stroke:#000;stroke-width:2.99px;"/><path d="M144.387,197.379c0.467,0 0.005,-0.585 -0.46,-0.585" style="fill:none;stroke:#000;stroke-width:2.99px;"/><path d="M143.583,169.274c-0.313,-0.077 0.344,0.554 0.344,1.124" style="fill:none;stroke:#000;stroke-width:2.99px;"/><path d="M141.332,181.363c-0.285,0.323 -0.16,0.092 -0.16,0.77" style="fill:none;stroke:#000;stroke-width:2.99px;"/><path d="M162.715,174.34c-0.135,0.401 -0.055,0.909 -0.055,1.34" style="fill:none;stroke:#000;stroke-width:2.99px;"/><path d="M174.887,164.3c-0.324,0.677 2.097,0.97 2.097,0.231" style="fill:none;stroke:#000;stroke-width:2.99px;"/><path d="M202.472,176.604c-0.284,0.478 -0.206,0.17 0.407,0.832" style="fill:none;stroke:#000;stroke-width:2.99px;"/><path d="M218.825,180.885c0.181,0.416 0.828,0.339 1.134,0.663" style="fill:none;stroke:#000;stroke-width:2.99px;"/><path d="M210.855,194.037c-0.065,-0.031 1.389,-0.462 1.389,-1.355" style="fill:none;stroke:#000;stroke-width:2.99px;"/><path d="M183.569,176.204c0.091,0.185 0.026,1.016 0.026,1.232" style="fill:none;stroke:#000;stroke-width:2.99px;"/><path d="M165.701,191.789c0.403,-0.416 0.606,0.893 -0.286,0.893" style="fill:none;stroke:#000;stroke-width:2.99px;"/><path d="M151.622,189.54c0.035,0.401 0.019,0.139 0.019,0.801" style="fill:none;stroke:#000;stroke-width:2.99px;"/><path d="M158.098,181.671c0.052,-0.046 0.103,-0.093 0.153,-0.123" style="fill:none;stroke:#000;stroke-width:2.99px;"/><path d="M178.241,185.937c-0.246,0.462 0.122,0.292 0.396,0.292" style="fill:none;stroke:#000;stroke-width:2.99px;"/><path d="M194.089,205.957c-0.052,0.462 -0.025,0.939 -0.025,1.401" style="fill:none;stroke:#000;stroke-width:2.99px;"/><path d="M204.149,213.272c-0.475,-0.154 1.485,0.477 1.485,-0.046" style="fill:none;stroke:#000;stroke-width:2.99px;"/><path d="M219.33,221.142c0.127,0.477 -0.018,0.292 0.629,0.292" style="fill:none;stroke:#000;stroke-width:2.99px;"/><path d="M219.973,209.992c-0.009,0.169 0.375,0.292 -0.014,0.292" style="fill:none;stroke:#000;stroke-width:2.99px;"/><path d="M234.649,193.498c0.336,0.662 0.736,0.57 0.736,-0.231" style="fill:none;stroke:#000;stroke-width:2.99px;"/><path d="M240.713,189.679c0.061,0.031 0.12,0.046 0.181,0.077" style="fill:none;stroke:#000;stroke-width:2.99px;"/><path d="M231.502,207.974c0.07,-0.092 0.026,-1.078 0.026,-1.201" style="fill:none;stroke:#000;stroke-width:2.99px;"/><path d="M246.753,205.726c0.36,-0.231 0.202,0.154 0.202,0.462" style="fill:none;stroke:#000;stroke-width:2.99px;"/><path d="M244.779,224.16c-0.083,0.616 0.922,0.801 -0.028,0.801" style="fill:none;stroke:#000;stroke-width:2.99px;"/><path d="M254.057,233.2c0.122,-0.062 1.063,1.032 1.162,1.139" style="fill:none;stroke:#000;stroke-width:2.99px;"/><path d="M271.558,227.671c0.314,0.354 0.19,0.123 0.19,0.801" style="fill:none;stroke:#000;stroke-width:2.99px;"/><path d="M274.199,244.026c-0.37,0.431 -0.37,0.293 0.304,0.293" style="fill:none;stroke:#000;stroke-width:2.99px;"/><path d="M298.04,250.879c0.165,-0.123 -0.198,0.478 -0.398,0.478" style="fill:none;stroke:#000;stroke-width:2.99px;"/><path d="M306.078,226.824c-0.667,-0.431 0.38,-1.632 0.38,-2.448" style="fill:none;stroke:#000;stroke-width:2.99px;"/><path d="M404.862,447.616c0.28,0.355 -0.287,-0.939 -1.436,0.278" style="fill:none;stroke:#000;stroke-width:2.99px;"/><path d="M402.542,425.348c-0.341,0.4 -0.218,0.138 -0.218,0.847" style="fill:none;stroke:#000;stroke-width:2.99px;"/><path d="M381.964,439.593c-0.065,0.231 0.525,-0.247 0.525,-0.493" style="fill:none;stroke:#000;stroke-width:2.99px;"/><path d="M394.434,409.778c0.326,-0.031 0.175,1.047 0.175,0.57" style="fill:none;stroke:#000;stroke-width:2.99px;"/><path d="M402.312,388.125c0.04,-0.261 0.035,-0.077 -0.539,-0.077" style="fill:none;stroke:#000;stroke-width:2.99px;"/><path d="M388.096,388.68c-0.319,-0.123 -0.864,-0.046 -1.199,-0.046" style="fill:none;stroke:#000;stroke-width:2.99px;"/><path d="M379.551,400.661c0.113,0.555 0.184,1.509 0.184,0.893" style="fill:none;stroke:#000;stroke-width:2.99px;"/><path d="M377.278,419.203c0.492,-0.108 0.804,0.678 0.804,-1.232" style="fill:none;stroke:#000;stroke-width:2.99px;"/><path d="M398.293,405.173c0.369,-0.231 1.815,0.478 0.724,0.478" style="fill:none;stroke:#000;stroke-width:2.99px;"/><path d="M406.4,402.679c-0.254,0.046 -0.513,0.046 -0.77,0.046" style="fill:none;stroke:#000;stroke-width:2.99px;"/><path d="M398.293,432.278c0.16,-0.2 2.894,-3.157 0.173,-3.157" style="fill:none;stroke:#000;stroke-width:2.99px;"/><path d="M389.909,420.142c-0.607,0.432 1.075,0.185 1.396,0.185" style="fill:none;stroke:#000;stroke-width:2.99px;"/><path d="M375.395,401.37c-0.356,0.954 0.265,1.355 -0.619,1.355" style="fill:none;stroke:#000;stroke-width:2.99px;"/><path d="M353.644,418.957c0.387,0.369 1.128,5.882 -0.907,3.711" style="fill:none;stroke:#000;stroke-width:2.99px;"/><path d="M340.506,435.081c0.306,-0.262 0.943,-1.848 -0.441,-1.848" style="fill:none;stroke:#000;stroke-width:2.99px;"/><path d="M357.365,398.028c-0.298,0 1.686,-1.756 0.331,-1.756" style="fill:none;stroke:#000;stroke-width:2.99px;"/><path d="M359.915,383.459c-0.104,-0.677 -0.476,1.663 -1.117,1.663" style="fill:none;stroke:#000;stroke-width:2.99px;"/><path d="M372.041,376.221c-0.001,0.016 1.633,1.479 1.633,-1.078" style="fill:none;stroke:#000;stroke-width:2.99px;"/><path d="M353.713,376.606c0.444,1.032 -2.115,-0.292 -3.178,-0.292" style="fill:none;stroke:#000;stroke-width:2.99px;"/><path d="M341.471,392.422c0.289,-0.308 -2.516,3.866 -3.059,5.021" style="fill:none;stroke:#000;stroke-width:2.99px;"/><path d="M335.983,414.213c0.415,0.447 -0.596,-0.939 -0.875,-0.338" style="fill:none;stroke:#000;stroke-width:2.99px;"/><path d="M338.394,423.022c0.059,0.724 1.891,1.402 0.569,1.402" style="fill:none;stroke:#000;stroke-width:2.99px;"/><path d="M349.188,405.651c0.295,0 -0.306,-0.277 -0.306,0.585" style="fill:none;stroke:#000;stroke-width:2.99px;"/><path d="M355.55,438.422c-0.116,0.185 0.493,0.632 0.493,-1.093" style="fill:none;stroke:#000;stroke-width:2.99px;"/><path d="M375.532,439.038c-0.608,0.17 -0.205,-1.247 -0.205,-1.709" style="fill:none;stroke:#000;stroke-width:2.99px;"/><path d="M371.237,413.428c0.252,-0.154 0.645,1.032 -0.318,1.032" style="fill:none;stroke:#000;stroke-width:2.99px;"/><path d="M330.746,406.282c-0.431,-0.354 -0.046,1.14 -0.046,1.725" style="fill:none;stroke:#000;stroke-width:2.99px;"/><path d="M311.981,415.23c-0.059,-0.801 -1.468,0.4 -2.218,0.4" style="fill:none;stroke:#000;stroke-width:2.99px;"/><path d="M327.094,388.125c-0.559,-0.154 0.329,-1.832 -0.251,-1.832" style="fill:none;stroke:#000;stroke-width:2.99px;"/><path d="M339.932,370.384c0.125,0.062 0.222,0.108 0.133,0.062" style="fill:none;stroke:#000;stroke-width:2.99px;"/><path d="M347.672,361.514c1.094,1.494 -1.91,0.724 -3.75,0.724" style="fill:none;stroke:#000;stroke-width:2.99px;"/><path d="M321.697,363.685c0.292,-0.431 -0.968,0.308 -1.465,0.308" style="fill:none;stroke:#000;stroke-width:2.99px;"/><path d="M316.207,375.051c0.914,0.508 2.346,2.448 0.168,2.448" style="fill:none;stroke:#000;stroke-width:2.99px;"/><path d="M318.343,387.894c1.442,1.001 1.27,-1.016 -0.315,-1.016" style="fill:none;stroke:#000;stroke-width:2.99px;"/><path d="M332.055,373.187c-0.304,0.247 0.292,-0.385 -0.253,-0.385" style="fill:none;stroke:#000;stroke-width:2.99px;"/><path d="M337.75,385.492c0.2,0.385 0.033,0.216 0.662,0.216" style="fill:none;stroke:#000;stroke-width:2.99px;"/><path d="M315.266,399.876c0.049,-0.601 1.109,0.616 1.109,-0.678" style="fill:none;stroke:#000;stroke-width:2.99px;"/><path d="M324.613,415.769c0.14,-0.786 0.925,1.617 1.679,1.617" style="fill:none;stroke:#000;stroke-width:2.99px;"/><path d="M326.428,433.448c-0.207,-0.339 -1.343,-0.801 -1.789,-0.801" style="fill:none;stroke:#000;stroke-width:2.99px;"/><path d="M298.338,415.291c-0.407,-0.708 -0.145,0.755 -0.145,0.924" style="fill:none;stroke:#000;stroke-width:2.99px;"/><path d="M287.245,416.231c-0.249,-0.062 -0.071,-0.046 -0.071,0.57" style="fill:none;stroke:#000;stroke-width:2.99px;"/><path d="M298.04,388.911c0.104,-0.185 0.153,0.2 0.153,-0.277" style="fill:none;stroke:#000;stroke-width:2.99px;"/><path d="M304.034,397.55c0.366,-0.184 0.443,0.478 -0.331,0.478" style="fill:none;stroke:#000;stroke-width:2.99px;"/><path d="M287.773,401.847c-0.207,1.263 -1.15,2.325 -1.15,0.293" style="fill:none;stroke:#000;stroke-width:2.99px;"/><path d="M294.618,374.512c0.354,0.061 1.245,3.434 -0.281,1.802" style="fill:none;stroke:#000;stroke-width:2.99px;"/><path d="M289.955,361.191c-0.151,-0.755 1.076,2.263 1.076,0.462" style="fill:none;stroke:#000;stroke-width:2.99px;"/><path d="M275.37,377.068c0.106,-0.077 1.072,3.08 -0.316,1.602" style="fill:none;stroke:#000;stroke-width:2.99px;"/><path d="M305.573,363.069c-0.241,-0.277 0.373,0.339 -0.217,0.339" style="fill:none;stroke:#000;stroke-width:2.99px;"/><path d="M306.147,373.572c-0.554,-0.431 -0.24,1.325 -0.24,1.571" style="fill:none;stroke:#000;stroke-width:2.99px;"/><path d="M323.81,359.327c-0.639,-0.046 -0.272,-0.123 -0.272,1.155" style="fill:none;stroke:#000;stroke-width:2.99px;"/><path d="M335.27,362.053c-0.054,0.062 -0.109,0.123 -0.162,0.185" style="fill:none;stroke:#000;stroke-width:2.99px;"/><path d="M323.213,427.211c-0.68,0.447 -0.123,0.739 -0.777,0.739" style="fill:none;stroke:#000;stroke-width:2.99px;"/><path d="M372.179,388.433c-0.122,0.154 0.944,0.678 0.944,-0.385" style="fill:none;stroke:#000;stroke-width:2.99px;"/><path d="M354.746,368.121c0.405,-0.031 0.195,-0.847 0.195,-1.186" style="fill:none;stroke:#000;stroke-width:2.99px;"/><path d="M365.77,408.146c0.674,-0.524 -0.36,-1.217 -0.36,-1.91" style="fill:none;stroke:#000;stroke-width:2.99px;"/><path d="M366.851,429.783c1.504,-0.524 0.688,-1.247 -0.34,-1.247" style="fill:none;stroke:#000;stroke-width:2.99px;"/><path d="M381.802,444.413c0.933,-0.246 -0.003,2.895 -0.966,2.895" style="fill:none;stroke:#000;stroke-width:2.99px;"/><path d="M407.411,415.846c-0.318,-0.539 -0.005,-0.216 -0.128,-0.216" style="fill:none;stroke:#000;stroke-width:2.99px;"/><path d="M384.214,429.783c-0.441,-0.447 -0.077,-1.54 -0.623,-1.833" style="fill:none;stroke:#000;stroke-width:2.99px;"/><path d="M386.694,384.245c0.505,0.723 0.203,-0.601 0.203,-0.878" style="fill:none;stroke:#000;stroke-width:2.99px;"/><path d="M264.989,352.474c0.317,-0.447 -0.989,0.385 -1.505,0.385" style="fill:none;stroke:#000;stroke-width:2.99px;"/><path d="M243.194,347.5c-0.627,0.477 -0.647,-0.016 -0.647,-0.508" style="fill:none;stroke:#000;stroke-width:2.99px;"/><path d="M220.57,354.338c-0.042,0.184 0.621,0.415 0.491,0.277" style="fill:none;stroke:#000;stroke-width:2.99px;"/><path d="M191.883,332.546c-0.063,-0.6 2.308,-0.739 -0.023,-1.986" style="fill:none;stroke:#000;stroke-width:2.99px;"/><path d="M166.712,315.96c-0.602,-0.215 -1.212,0.524 -1.848,0.524" style="fill:none;stroke:#000;stroke-width:2.99px;"/><path d="M156.789,340.262c-0.299,0.431 0.11,0.277 0.36,0.277" style="fill:none;stroke:#000;stroke-width:2.99px;"/><path d="M158.626,358.465c0.285,0.416 0.077,0.262 0.727,0.262" style="fill:none;stroke:#000;stroke-width:2.99px;"/><path d="M151.025,301.946c0.408,-0.816 0.616,0.955 0.616,1.032" style="fill:none;stroke:#000;stroke-width:2.99px;"/><path d="M149.577,322.028c-0.265,-0.508 0.192,0.092 0.411,0.323" style="fill:none;stroke:#000;stroke-width:2.99px;"/><path d="M171.672,308.414c-0.066,-0.046 -0.131,-0.092 -0.198,-0.154" style="fill:none;stroke:#000;stroke-width:2.99px;"/><path d="M182.03,322.89c-0.473,0.201 1.014,0.678 1.014,1.217" style="fill:none;stroke:#000;stroke-width:2.99px;"/><path d="M172.109,337.69c-0.58,-0.631 -1.453,1.078 -2.288,1.078" style="fill:none;stroke:#000;stroke-width:2.99px;"/><path d="M166.94,327.865c0.255,-0.478 0.345,0 0.679,0.354" style="fill:none;stroke:#000;stroke-width:2.99px;"/><path d="M178.172,363.208c-0.029,0.077 -0.057,0.139 -0.086,0.2" style="fill:none;stroke:#000;stroke-width:2.99px;"/><path d="M170.731,369.614c0.064,0.077 0.129,0.17 0.192,0.247" style="fill:none;stroke:#000;stroke-width:2.99px;"/><path d="M199.119,372.017c-0.19,0.385 1.005,1.232 1.005,0.785" style="fill:none;stroke:#000;stroke-width:2.99px;"/><path d="M206.262,339.091c-0.149,0.524 0.474,-0.954 0.474,-2.079" style="fill:none;stroke:#000;stroke-width:2.99px;"/><path d="M224.062,328.481c-0.465,-0.509 0.854,0.816 0.854,1.493" style="fill:none;stroke:#000;stroke-width:2.99px;"/><path d="M232.606,341.894c0.007,-0.061 0.286,0.401 -0.527,0.401" style="fill:none;stroke:#000;stroke-width:2.99px;"/><path d="M199.693,348.347c-0.129,-0.2 0.091,0.4 -0.671,0.4" style="fill:none;stroke:#000;stroke-width:2.99px;"/><path d="M193.491,361.822c0.119,-0.924 1.124,0.524 1.124,-0.169" style="fill:none;stroke:#000;stroke-width:2.99px;"/><path d="M195.765,320.781c-0.093,-0.385 1.053,1.878 1.053,-0.201" style="fill:none;stroke:#000;stroke-width:2.99px;"/><path d="M217.125,360.267c0.284,0.785 0.63,0.138 0.63,0.8" style="fill:none;stroke:#000;stroke-width:2.99px;"/><path d="M224.796,381.919c0.613,1.386 -0.98,0.847 -0.98,2.033" style="fill:none;stroke:#000;stroke-width:2.99px;"/><path d="M241.057,361.961c-0.209,0.354 0.939,0.693 0.939,-0.308" style="fill:none;stroke:#000;stroke-width:2.99px;"/><path d="M259.385,335.888c0.454,-0.092 0.187,0.601 0.793,-0.046" style="fill:none;stroke:#000;stroke-width:2.99px;"/><path d="M246.753,338.614c0.311,0.246 1.424,0.154 0.202,0.154" style="fill:none;stroke:#000;stroke-width:2.99px;"/><path d="M285.293,355.031c0.406,0.292 0.228,0.862 0.228,1.339" style="fill:none;stroke:#000;stroke-width:2.99px;"/><path d="M300.98,353.953c-0.072,0.169 0.519,0.261 0.519,0.077" style="fill:none;stroke:#000;stroke-width:2.99px;"/><path d="M269.238,363.932c-0.312,0.092 0.306,-0.077 0.306,-0.524" style="fill:none;stroke:#000;stroke-width:2.99px;"/><path d="M275.715,351.227c-0.181,-0.216 0.441,-0.432 0.441,-0.724" style="fill:none;stroke:#000;stroke-width:2.99px;"/><path d="M279.872,371.77c0.047,-0.046 0.093,-0.092 0.141,-0.138" style="fill:none;stroke:#000;stroke-width:2.99px;"/><path d="M257.709,376.221c0.498,0.185 0.443,-0.493 -0.286,-0.493" style="fill:none;stroke:#000;stroke-width:2.99px;"/><path d="M253.988,360.575c0.072,-0.062 -0.836,-0.678 -1.523,-0.678" style="fill:none;stroke:#000;stroke-width:2.99px;"/><path d="M266.091,344.528c0.19,0.138 0.699,1.663 0.699,0.107" style="fill:none;stroke:#000;stroke-width:2.99px;"/><path d="M253.919,351.766c0.648,-0.293 0.749,0.323 0.749,-0.678" style="fill:none;stroke:#000;stroke-width:2.99px;"/><path d="M243.331,333.855c-0.281,0.278 0.664,0.817 -0.233,0.817" style="fill:none;stroke:#000;stroke-width:2.99px;"/><path d="M237.864,369.445c0.184,-0.108 0.65,1.001 -0.826,1.001" style="fill:none;stroke:#000;stroke-width:2.99px;"/><path d="M257.709,378.239c0.625,-0.385 0.816,0.246 0.816,-0.74" style="fill:none;stroke:#000;stroke-width:2.99px;"/><path d="M263.174,395.995c-0.367,0.416 0.087,0.277 0.31,0.277" style="fill:none;stroke:#000;stroke-width:2.99px;"/><path d="M280.607,385.107c-0.215,0.092 -0.043,0 -0.043,0.601" style="fill:none;stroke:#000;stroke-width:2.99px;"/><path d="M293.24,379.871c-0.106,-0.847 -0.295,2.31 -1.107,2.31" style="fill:none;stroke:#000;stroke-width:2.99px;"/><path d="M275.003,405.096c0.224,-0.154 2.113,-1.201 0.602,-1.201" style="fill:none;stroke:#000;stroke-width:2.99px;"/><path d="M269.008,386.493c-0.034,-0.447 0.536,0.477 0.536,-0.2" style="fill:none;stroke:#000;stroke-width:2.99px;"/><path d="M244.272,390.928c-0.399,0.308 1.03,-0.585 1.03,-1.109" style="fill:none;stroke:#000;stroke-width:2.99px;"/><path d="M264.852,370.862c-0.344,0.231 0.836,0.57 0.836,-0.416" style="fill:none;stroke:#000;stroke-width:2.99px;"/><path d="M230.193,357.002c0.416,-0.077 0.233,-0.108 0.233,-0.632" style="fill:none;stroke:#000;stroke-width:2.99px;"/><path d="M243.63,380.348c0.165,0.632 0.57,1.248 0.57,0.077" style="fill:none;stroke:#000;stroke-width:2.99px;"/><path d="M258.788,399.106c-0.088,0.031 -0.175,0.061 -0.263,0.092" style="fill:none;stroke:#000;stroke-width:2.99px;"/><path d="M236.693,394.748c-0.323,-0.37 0.896,0.431 0.896,0.939" style="fill:none;stroke:#000;stroke-width:2.99px;"/><path d="M226.037,372.402c-0.038,-0.385 -0.077,-0.185 0.532,-0.185" style="fill:none;stroke:#000;stroke-width:2.99px;"/><path d="M235.66,386.57c-0.688,-0.693 -0.275,1.54 -0.275,2.064" style="fill:none;stroke:#000;stroke-width:2.99px;"/><path d="M211.728,385.8c-0.085,-0.231 0.285,0.493 0.516,0.493" style="fill:none;stroke:#000;stroke-width:2.99px;"/><path d="M210.717,363.685c-0.366,-0.8 -0.126,0.77 -0.126,0.909" style="fill:none;stroke:#000;stroke-width:2.99px;"/><path d="M210.58,377.145c0.013,-0.246 0.269,0.354 -0.538,0.354" style="fill:none;stroke:#000;stroke-width:2.99px;"/><path d="M212.693,337.521c0.256,0.184 0.103,0.03 0.103,0.662" style="fill:none;stroke:#000;stroke-width:2.99px;"/><path d="M218.227,344.22c0.255,-0.539 2.283,1.832 2.283,-0.755" style="fill:none;stroke:#000;stroke-width:2.99px;"/><path d="M234.649,332.639c0.337,0.492 0.758,0.261 -0.366,0.261" style="fill:none;stroke:#000;stroke-width:2.99px;"/><path d="M211.154,324.215c-0.085,-0.893 1.09,-1.556 1.09,-2.449" style="fill:none;stroke:#000;stroke-width:2.99px;"/><path d="M210.487,331.299c0.035,-0.062 0.07,-0.108 0.104,-0.154" style="fill:none;stroke:#000;stroke-width:2.99px;"/><path d="M209.246,354.338c0.755,0.847 0.249,2.048 -0.857,0.862" style="fill:none;stroke:#000;stroke-width:2.99px;"/><path d="M188.392,344.528c0.317,0.215 0.098,0.107 0.713,0.107" style="fill:none;stroke:#000;stroke-width:2.99px;"/><path d="M181.388,352.151c0.001,0.046 0.003,0.077 0.004,0.123" style="fill:none;stroke:#000;stroke-width:2.99px;"/><path d="M187.957,374.127c0.014,-0.062 0.081,-0.123 0.046,-0.154" style="fill:none;stroke:#000;stroke-width:2.99px;"/><path d="M186.646,312.156c0.086,0.062 0.171,0.139 0.255,0.216" style="fill:none;stroke:#000;stroke-width:2.99px;"/><path d="M158.03,302.1c0.313,0.416 1.361,0.293 0.772,0.293" style="fill:none;stroke:#000;stroke-width:2.99px;"/><path d="M178.906,334.795c-0.313,-0.154 0.475,-0.123 0.282,-0.123" style="fill:none;stroke:#000;stroke-width:2.99px;"/><path d="M154.974,333.855c-0.016,0.123 0.054,-0.277 -0.029,-0.369" style="fill:none;stroke:#000;stroke-width:2.99px;"/><path d="M169.123,355.431c0.3,-0.477 -0.569,-1.001 -0.955,-1.401" style="fill:none;stroke:#000;stroke-width:2.99px;"/><path d="M154.906,354.199c0.209,-0.862 1.141,0.169 1.141,-0.755" style="fill:none;stroke:#000;stroke-width:2.99px;"/><path d="M424.274,383.259c18.351,4.82 50.305,11.335 72.088,27.905c21.08,16.032 17.56,36.514 -6.715,47.309" style="fill:none;stroke:#000;stroke-width:2.99px;"/><path d="M84.784,352.582c-17.63,34.419 8.822,57.289 19.242,63.818c31.44,19.712 78.022,35.59 106.807,41.334" style="fill:none;stroke:#000;stroke-width:2.99px;"/><path d="M395.68,305.473c-0.486,0.385 -0.751,-0.539 -1.694,-0.2c-2.975,1.062 -6.541,2.094 -9.772,1.416c-5.595,-1.201 -8.729,-7.315 -15.054,-7.315" style="fill:none;stroke:#000;stroke-width:2.99px;"/><path d="M329.751,292.86c0.989,0.77 -2.501,0.123 -3.642,0.601c-1.89,0.8 -5.763,3.172 -7.923,2.248c-3.8,-1.617 -6.426,-6.222 -10.565,-7.869c-4.298,-1.725 -9.976,-1.125 -14.526,-1.125" style="fill:none;stroke:#000;stroke-width:2.99px;"/><path d="M268.193,267.511c0.376,0.401 -0.806,-0.739 -1.245,-1.047c-0.9,-0.631 -1.306,-1.232 -2.377,-1.694c-2.992,-1.263 -5.737,-3.126 -8.716,-4.497c-4.791,-2.187 -9.173,-0.539 -13.998,-1.401c-5.72,-1.017 -7.539,-4.79 -11.885,-7.87" style="fill:none;stroke:#000;stroke-width:2.99px;"/><path d="M270.152,302.624c-0.029,0.108 -1.705,-1.663 -1.884,-1.848c-1.21,-1.294 -2.553,-2.079 -4.226,-2.526c-7.577,-2.017 -14.265,-5.344 -22.185,-5.344" style="fill:none;stroke:#000;stroke-width:2.99px;"/><path d="M366.227,317.593c0.22,0.431 -6.314,0.893 -6.576,0.893c-6.97,0 -12.117,0.169 -18.223,-3.08" style="fill:none;stroke:#000;stroke-width:2.99px;"/><path d="M211.921,264.447c0.008,0.015 -1.45,-0.416 -1.758,-0.508c-1.171,-0.355 -2.267,-0.755 -3.433,-1.125c-4.055,-1.309 -8.472,-2.248 -12.677,-2.248" style="fill:none;stroke:#000;stroke-width:2.99px;"/><path d="M190.968,233.77c-0.331,0.246 -1.523,-1.325 -1.934,-1.617c-1.3,-0.924 -2.732,-1.34 -4.226,-1.694c-6.661,-1.571 -13.556,-2.834 -19.808,-5.052" style="fill:none;stroke:#000;stroke-width:2.99px;"/><path d="M171.59,246.121c0.223,1.601 -7.257,0.785 -8.174,0.662c-3.646,-0.493 -5.756,-4.251 -8.981,-5.637c-2.652,-1.124 -5.246,-0.354 -7.922,0c-1.565,0.216 -2.5,0.139 -3.435,1.125" style="fill:none;stroke:#000;stroke-width:2.99px;"/><path d="M259.738,34.091c-0.361,1.14 2.047,-2.818 2.845,-1.971c1.578,1.694 -3.78,4.682 -4.304,3.573c-1.098,-2.341 3.75,-3.049 1.435,-3.049" style="fill:none;stroke:#000;stroke-width:2.99px;"/></svg>