<?xml version="1.0" encoding="UTF-8" standalone="no"?>
<!DOCTYPE svg PUBLIC "-//W3C//DTD SVG 1.1//EN" "http://www.w3.org/Graphics/SVG/1.1/DTD/svg11.dtd">
<svg width="100%" height="100%" viewBox="0 0 2732 2048" version="1.1" xmlns="http://www.w3.org/2000/svg" xmlns:xlink="http://www.w3.org/1999/xlink" xml:space="preserve" xmlns:serif="http://www.serif.com/" style="fill-rule:evenodd;clip-rule:evenodd;stroke-linejoin:round;stroke-miterlimit:2;">
    <g transform="matrix(1,0,0,1,57.2727,18.539)">
        <g transform="matrix(1.68357,0,0,1.68357,292.784,434.685)">
            <path d="M693.392,275.997C692.952,276.196 689.048,287.276 688.729,288.152C683.906,301.416 678.934,314.532 672.093,326.969C652.173,363.189 618.94,390.31 576.312,394.016C540.68,397.115 507.73,382.599 492.125,349.654C486.444,337.662 482.756,323.773 479.522,310.838" style="fill:none;stroke:black;stroke-width:1.19px;stroke-linecap:round;stroke-miterlimit:1.5;"/>
            <path d="M615.996,158.554C612.821,174.381 621.365,183.385 634.285,193.883C658.419,213.492 687.282,226.716 709.398,248.832C747.016,286.45 766.18,340.841 753.76,393.008C748.959,413.17 737.604,436.065 723.387,448.443C701.51,467.492 661.664,463.319 647.078,457.387" style="fill:none;stroke:black;stroke-width:1.19px;stroke-linecap:round;stroke-miterlimit:1.5;"/>
            <path d="M615.995,158.596C615.865,160.956 606.766,179.288 600.443,187.466C590.321,200.557 564.182,211.706 551.106,216.064C528.616,223.561 508.259,225.439 489.1,240.766C481.12,247.15 475.409,255.042 470.952,263.955" style="fill:none;stroke:black;stroke-width:1.19px;stroke-linecap:round;stroke-miterlimit:1.5;"/>
            <path d="M644.561,456.18C631.935,451.886 622.524,434.019 620.64,426.11C616.865,410.255 619.291,395.139 624.707,378.893" style="fill:none;stroke:black;stroke-width:1.19px;stroke-linecap:round;stroke-miterlimit:1.5;"/>
            <path d="M640.807,377.205C638.802,382.046 636.868,402.697 650.416,415.693C660.116,424.998 670.743,431.519 687.69,429.277C709.128,426.441 726.717,414.257 729.562,391.496" style="fill:none;stroke:black;stroke-width:1.19px;stroke-linecap:round;stroke-miterlimit:1.5;"/>
            <path d="M611.237,249.896C612.309,240.262 655.061,235.619 668.029,245.701" style="fill:none;stroke:black;stroke-width:1.19px;stroke-linecap:round;stroke-miterlimit:1.5;"/>
            <path d="M621.277,265.909C621.277,265.909 629.854,261.741 632.956,266.924C638.32,275.883 632.135,281.765 622.69,279.078C616.697,277.373 617.754,267.371 621.277,265.909Z" style="fill:url(#_Linear1);stroke:black;stroke-width:1.19px;stroke-linecap:round;stroke-miterlimit:1.5;"/>
            <path d="M539.669,251.493C530.879,243.63 520.719,239.253 508.256,239.253" style="fill:none;stroke:black;stroke-width:1.19px;stroke-linecap:round;stroke-miterlimit:1.5;"/>
            <path d="M519.486,261.921C519.486,261.921 523.821,261.562 526.229,264.47C528.457,267.162 528.067,275.317 520.355,276.054C518.889,276.194 517.616,275.868 516.562,275.231C511.451,272.145 511.481,261.768 519.486,261.921Z" style="fill:url(#_Linear2);stroke:black;stroke-width:1.19px;stroke-linecap:round;stroke-miterlimit:1.5;"/>
            <path d="M562.606,264.712C568.429,280.219 557.823,298.931 548.081,310.838" style="fill:none;stroke:black;stroke-width:1.19px;stroke-linecap:round;stroke-miterlimit:1.5;"/>
            <path d="M553.044,342.614C553.117,342.598 555.777,349.327 560.684,351.167C570.754,354.943 580.131,347.779 585.89,340.58" style="fill:none;stroke:black;stroke-width:1.19px;stroke-linecap:round;stroke-miterlimit:1.5;"/>
            <path d="M679.702,173.137C679.096,173.456 698.307,139.943 698.307,139.943L685.2,139.943C677.562,139.943 669.743,139.439 662.011,139.439C639.02,139.439 615.548,135.71 592.947,132.885C571.436,130.196 513.275,105.127 513.376,107.077C513.597,111.335 515.027,153.216 511.019,166.152" style="fill:none;stroke:black;stroke-width:1.19px;stroke-linecap:round;stroke-miterlimit:1.5;"/>
            <path d="M513.377,106.899C513.27,105.254 512.717,81.798 511.785,78.441C509.598,70.56 504.129,76.536 499.686,69.871C492.414,58.963 498.143,40.656 508.256,33.071C519.231,24.84 524.298,35.11 534.47,32.567C544.497,30.06 545.97,17.399 561.692,20.468C575.208,23.106 579.073,33.458 589.512,33.823C606.868,34.43 604.534,15.89 627.548,23.662C647.371,30.356 646.235,36.625 658.057,44.084C675.153,54.871 681.3,39.028 692.856,40.473C705.849,42.097 707.66,56.349 721.643,58.798C731.758,60.569 739.509,71.67 740.653,77.937C744.325,98.047 726.872,114.646 714.04,124.445C709.441,127.957 701.008,136.333 698.247,139.824" style="fill:none;stroke:black;stroke-width:1.19px;stroke-linecap:round;stroke-miterlimit:1.5;"/>
            <path d="M678.76,139.636C679.52,136.597 682.246,126.812 683.184,123.811C686.045,114.656 688.241,105.111 691.25,96.085" style="fill:none;stroke:black;stroke-width:1.19px;stroke-linecap:round;stroke-miterlimit:1.5;"/>
            <path d="M652.419,138.691C654.369,126.017 659.491,97.361 659.491,84.49" style="fill:none;stroke:black;stroke-width:1.19px;stroke-linecap:round;stroke-miterlimit:1.5;"/>
            <path d="M626.056,135.965C626.769,123.079 628.74,98.566 628.74,86.003" style="fill:none;stroke:black;stroke-width:1.19px;stroke-linecap:round;stroke-miterlimit:1.5;"/>
            <path d="M591.326,131.881C592.467,117.011 596.174,88.855 596.657,79.719" style="fill:none;stroke:black;stroke-width:1.19px;stroke-linecap:round;stroke-miterlimit:1.5;"/>
            <path d="M566.87,124.845C567.162,121.655 571.316,81.795 571.085,71.508" style="fill:none;stroke:black;stroke-width:1.19px;stroke-linecap:round;stroke-miterlimit:1.5;"/>
            <path d="M535.117,114.075C537.372,103.613 538.362,80.489 537.323,68.393" style="fill:none;stroke:black;stroke-width:1.19px;stroke-linecap:round;stroke-miterlimit:1.5;"/>
            <path d="M555.666,393.627C554.673,397.598 551.309,415.001 549.594,418.718C543.73,431.422 537.312,442.09 527.413,451.989" style="fill:none;stroke:black;stroke-width:1.19px;stroke-linecap:round;stroke-miterlimit:1.5;"/>
            <path d="M586.126,393.143C584.404,412.953 575.312,460.33 582.865,479.212" style="fill:none;stroke:black;stroke-width:1.19px;stroke-linecap:round;stroke-miterlimit:1.5;"/>
        </g>
        <g transform="matrix(1.68357,0,0,1.68357,292.784,434.685)">
            <path d="M510.163,375.461C510.265,375.371 509.018,378.378 508.76,378.893C507.61,381.194 505.541,383.625 503.719,385.446C497.734,391.432 491.698,397.438 483.555,400.57C461.835,408.924 433.165,404.384 419.532,383.934C380.294,325.076 419.847,251.453 460.285,204.044C485.047,175.013 551.895,143.632 595.468,142.464C608.305,142.119 620.126,144.708 632.472,147.795C643.662,150.593 656.684,155.044 666.548,161.62C683.437,172.879 697.658,197.481 703.853,216.064C710.496,235.993 712.212,251.751 707.885,273.029" style="fill:none;stroke:black;stroke-width:1.19px;stroke-linecap:round;stroke-miterlimit:1.5;"/>
        </g>
    </g>
    <defs>
        <linearGradient id="_Linear1" x1="0" y1="0" x2="1" y2="0" gradientUnits="userSpaceOnUse" gradientTransform="matrix(0.258451,-1.28346,1.28346,0.258451,624.208,275.358)"><stop offset="0" style="stop-color:black;stop-opacity:1"/><stop offset="1" style="stop-color:black;stop-opacity:1"/></linearGradient>
        <linearGradient id="_Linear2" x1="0" y1="0" x2="1" y2="0" gradientUnits="userSpaceOnUse" gradientTransform="matrix(-3.74174,7.34817,-7.34817,-3.74174,522.511,264.74)"><stop offset="0" style="stop-color:black;stop-opacity:1"/><stop offset="1" style="stop-color:black;stop-opacity:1"/></linearGradient>
    </defs>
</svg>
