<?xml version="1.0" encoding="UTF-8" standalone="no"?><!DOCTYPE svg PUBLIC "-//W3C//DTD SVG 1.1//EN" "http://www.w3.org/Graphics/SVG/1.1/DTD/svg11.dtd"><svg width="100%" height="100%" viewBox="0 0 1140 400" version="1.1" xmlns="http://www.w3.org/2000/svg" xmlns:xlink="http://www.w3.org/1999/xlink" xml:space="preserve" xmlns:serif="http://www.serif.com/" style="fill-rule:evenodd;clip-rule:evenodd;stroke-linejoin:round;stroke-miterlimit:1.41421;"><g><path d="M12.092,100.516l65.971,0l0,-4.023l-65.971,0l0,-81.957l74.63,0l0,-3.771l-77.722,0l0,175.73l3.092,0l0,-85.979Z" style="fill-rule:nonzero;"/><path d="M240.106,98.504c0,23.884 -7.834,45.253 -20.409,60.84c-12.782,15.838 -30.512,25.642 -49.891,25.642c-19.379,0 -36.902,-9.804 -49.684,-25.642c-12.576,-15.587 -20.616,-36.956 -20.616,-60.84c0,-23.883 8.04,-45.252 20.616,-60.839c12.782,-15.838 30.305,-25.643 49.684,-25.643c19.379,0 37.109,9.805 49.891,25.643c12.575,15.587 20.409,36.956 20.409,60.839Zm-143.899,0c0,24.889 8.453,47.515 21.647,63.856c13.194,16.593 31.748,26.649 51.952,26.649c20.41,0 38.758,-10.056 52.158,-26.649c13.194,-16.341 21.647,-38.967 21.647,-63.856c0,-24.888 -8.453,-47.514 -21.647,-63.855c-13.4,-16.593 -31.748,-26.649 -52.158,-26.649c-20.204,0 -38.758,10.056 -51.952,26.649c-13.194,16.341 -21.647,38.967 -21.647,63.855Z" style="fill-rule:nonzero;"/><path d="M388.328,98.504c0,23.884 -7.834,45.253 -20.41,60.84c-12.782,15.838 -30.512,25.642 -49.891,25.642c-19.378,0 -36.902,-9.804 -49.684,-25.642c-12.576,-15.587 -20.616,-36.956 -20.616,-60.84c0,-23.883 8.04,-45.252 20.616,-60.839c12.782,-15.838 30.306,-25.643 49.684,-25.643c19.379,0 37.109,9.805 49.891,25.643c12.576,15.587 20.41,36.956 20.41,60.839Zm-143.899,0c0,24.889 8.452,47.515 21.646,63.856c13.195,16.593 31.749,26.649 51.952,26.649c20.41,0 38.758,-10.056 52.159,-26.649c13.194,-16.341 21.646,-38.967 21.646,-63.856c0,-24.888 -8.452,-47.514 -21.646,-63.855c-13.401,-16.593 -31.749,-26.649 -52.159,-26.649c-20.203,0 -38.757,10.056 -51.952,26.649c-13.194,16.341 -21.646,38.967 -21.646,63.855Z" style="fill-rule:nonzero;"/><path d="M409.774,182.724l0,-168.188l45.561,0c90.504,0 90.504,168.188 0,168.188l-45.561,0Zm-3.092,-171.959l0,175.73l48.653,0c94.627,0 94.627,-175.73 0,-175.73l-48.653,0Z" style="fill-rule:nonzero;"/><path d="M544.387,10.765l-3.299,0l0,175.73l80.815,0l0,-4.023l-77.516,0l0,-171.707Z" style="fill-rule:nonzero;"/><path d="M775.083,98.504c0,23.884 -7.834,45.253 -20.409,60.84c-12.782,15.838 -30.512,25.642 -49.891,25.642c-19.379,0 -36.902,-9.804 -49.684,-25.642c-12.576,-15.587 -20.616,-36.956 -20.616,-60.84c0,-23.883 8.04,-45.252 20.616,-60.839c12.782,-15.838 30.305,-25.643 49.684,-25.643c19.379,0 37.109,9.805 49.891,25.643c12.575,15.587 20.409,36.956 20.409,60.839Zm-143.899,0c0,24.889 8.453,47.515 21.647,63.856c13.194,16.593 31.749,26.649 51.952,26.649c20.41,0 38.758,-10.056 52.158,-26.649c13.195,-16.341 21.647,-38.967 21.647,-63.856c0,-24.888 -8.452,-47.514 -21.647,-63.855c-13.4,-16.593 -31.748,-26.649 -52.158,-26.649c-20.203,0 -38.758,10.056 -51.952,26.649c-13.194,16.341 -21.647,38.967 -21.647,63.855Z" style="fill-rule:nonzero;"/><path d="M923.305,98.504c0,23.884 -7.834,45.253 -20.41,60.84c-12.782,15.838 -30.511,25.642 -49.89,25.642c-19.379,0 -36.903,-9.804 -49.685,-25.642c-12.575,-15.587 -20.616,-36.956 -20.616,-60.84c0,-23.883 8.041,-45.252 20.616,-60.839c12.782,-15.838 30.306,-25.643 49.685,-25.643c19.379,0 37.108,9.805 49.89,25.643c12.576,15.587 20.41,36.956 20.41,60.839Zm-143.899,0c0,24.889 8.452,47.515 21.646,63.856c13.195,16.593 31.749,26.649 51.953,26.649c20.409,0 38.757,-10.056 52.158,-26.649c13.194,-16.341 21.647,-38.967 21.647,-63.856c0,-24.888 -8.453,-47.514 -21.647,-63.855c-13.401,-16.593 -31.749,-26.649 -52.158,-26.649c-20.204,0 -38.758,10.056 -51.953,26.649c-13.194,16.341 -21.646,38.967 -21.646,63.855Z" style="fill-rule:nonzero;"/><path d="M1030.51,49.481l3.093,-0.754l-0.206,-2.011c-7.01,-45.504 -66.384,-49.778 -87.412,-16.593c-5.36,8.548 -7.628,18.855 -6.803,29.414c3.711,65.616 85.144,17.85 94.421,70.141c5.978,34.945 -21.235,54.806 -46.386,54.806c-19.585,0 -43.706,-13.325 -45.974,-39.722l-0.206,-1.76l-3.298,0.503l0.206,1.76c2.474,28.408 28.038,42.99 49.066,42.99c27.419,0 56.281,-22.124 49.684,-59.331c-9.896,-56.314 -90.71,-8.045 -94.421,-69.638c-0.618,-9.805 1.237,-19.107 6.391,-26.9c8.659,-13.827 24.121,-19.861 37.727,-20.112c12.988,-0.252 27.213,4.525 36.078,16.089c4.123,5.531 6.597,11.816 7.834,19.107l0.206,2.011Z" style="fill-rule:nonzero;"/><path d="M1057.31,100.516l74.629,0l0,-4.023l-74.629,0l0,-81.957l76.279,0l0,-3.771l-79.578,0l0,175.73l79.99,0l0,-3.771l-76.691,0l0,-82.208Z" style="fill-rule:nonzero;"/></g><g><g><path d="M259.651,317.354c0.393,-5.284 1.548,-11.117 3.241,-16.825c3.467,-11.731 9.166,-22.936 14.663,-27.943c2.734,-2.486 5.483,-3.49 7.935,-2.8c4.674,1.319 5.239,5.979 2.779,12.221c-4.723,11.984 -20.361,30.473 -23.513,34.243c-0.507,0.609 -1.291,1.506 -2.247,2.562c-0.147,3.21 0.032,6.175 0.613,8.705c0.926,3.98 2.914,6.822 6.463,7.51c0.464,0.086 0.912,0.158 1.368,0.213c-0.288,-0.135 -0.527,-0.323 -0.733,-0.529c-0.504,-0.522 -0.814,-1.267 -0.889,-2.217c-0.18,-2.588 1.878,-7.344 2.475,-8.52c1.422,-2.87 4.484,-7.549 8.651,-10.865c4.356,-3.461 9.86,-5.438 15.951,-2.718c2.674,1.193 4.236,2.949 4.962,4.931c1.059,2.906 0.313,6.476 -1.956,9.958c-5.076,7.79 -17.839,15.316 -30.342,12.908c-4.757,-0.917 -7.575,-4.561 -8.818,-9.882c-0.447,-1.877 -0.671,-3.966 -0.726,-6.221c-3.684,3.996 -7.862,8.413 -8.533,9.023c-0.726,0.64 -1.384,0.393 -1.48,0.364c-0.525,-0.174 -0.865,-0.555 -1.011,-1.153c-0.012,-0.093 -0.216,-0.77 0.408,-1.557c0.113,-0.145 0.256,-0.269 0.398,-0.354c1.143,-1.209 6.645,-7.009 10.341,-11.054Zm13.277,18.06c10.145,0.452 19.931,-5.646 24.066,-11.989c1.587,-2.44 2.365,-4.882 1.625,-6.918c-0.485,-1.309 -1.584,-2.366 -3.341,-3.143c-4.99,-2.228 -9.489,-0.503 -13.064,2.336c-3.748,2.991 -6.514,7.215 -7.799,9.796c-0.354,0.712 -1.379,2.936 -1.883,4.942c-0.126,0.524 -0.218,1.036 -0.237,1.485c-0.009,0.111 0.005,0.259 0.009,0.368l0.012,-0.001c0.81,-0.083 1.539,0.572 1.62,1.451c0.061,0.755 -0.375,1.443 -1.008,1.673Zm-21.725,-4.618l-0.037,0.051c0.02,-0.018 0.028,-0.034 0.037,-0.051Zm11.827,-17.258c3.919,-4.68 18.102,-21.615 22.498,-32.789c0.717,-1.816 1.179,-3.457 1.218,-4.835c0.02,-0.779 -0.082,-1.452 -0.41,-1.975c-0.323,-0.509 -0.864,-0.838 -1.598,-1.038c-1.036,-0.294 -2.121,-0.01 -3.26,0.641c-1.369,0.784 -2.762,2.096 -4.156,3.786c-4.466,5.427 -8.776,14.637 -11.61,24.183c-1.191,4.032 -2.124,8.131 -2.682,12.027Z"/><path d="M316.713,331.467c0.514,-1.631 1.039,-3.27 1.59,-4.905c0.859,-2.616 2.442,-7.166 4.507,-10.753c1.536,-2.678 3.385,-4.791 5.333,-5.532c1.581,-0.602 2.615,-0.268 3.266,0.285c0.669,0.575 1.079,1.554 1.108,2.807c0.054,2.35 -1.262,5.907 -1.491,6.425c-1.701,3.77 -6.091,9.77 -11.847,13.799l-0.426,1.346c-0.148,0.487 -0.297,0.973 -0.458,1.46l-0.858,2.765c6.24,-3.583 12.645,-7.066 19.14,-10.495c0.742,-0.39 1.624,-0.057 1.986,0.738c0.362,0.795 0.05,1.761 -0.68,2.15c-7.447,3.927 -14.764,7.92 -21.83,12.051c-3.21,10.22 -6.711,20.392 -12.248,30.254c-3.583,6.381 -15.225,17.905 -28.507,14.745c-5.032,-1.195 -7.136,-3.476 -7.667,-5.863c-0.518,-2.247 0.353,-4.864 2.02,-7.382c2.145,-3.234 5.561,-6.387 7.764,-8.356c10.586,-9.461 22.954,-17.81 36.219,-25.631c0.572,-1.84 1.145,-3.681 1.717,-5.522c-3.468,1.667 -7.251,2.479 -11.146,1.818c-3.951,-0.686 -5.985,-2.416 -6.852,-4.502c-0.867,-2.085 -0.575,-4.698 0.526,-7.449c1.892,-4.715 6.173,-9.982 9.039,-13.259c0.575,-0.64 1.514,-0.665 2.103,-0.059c0.591,0.615 0.619,1.625 0.058,2.271c-2.685,3.054 -6.717,7.926 -8.478,12.33c-0.721,1.801 -1.107,3.489 -0.544,4.853c0.56,1.355 2.043,2.192 4.619,2.635c4.293,0.737 8.439,-0.701 12.037,-3.024Zm-4.506,14.427c-12.024,7.223 -23.212,14.932 -32.902,23.588c-1.959,1.747 -4.956,4.48 -6.959,7.347c-1.257,1.777 -2.2,3.554 -1.84,5.15c0.149,0.659 0.568,1.244 1.277,1.776c0.93,0.706 2.291,1.273 4.161,1.717c11.827,2.806 22.14,-7.593 25.328,-13.273c4.815,-8.587 8.066,-17.415 10.935,-26.305Zm17.328,-32.69c-0.121,0.02 -0.276,0.052 -0.401,0.104c-1.432,0.547 -2.676,2.229 -3.808,4.197c-1.943,3.379 -3.415,7.683 -4.239,10.146l-0.173,0.535c3.58,-3.295 6.242,-7.147 7.445,-9.798c0.151,-0.338 0.903,-2.354 1.138,-4.089c0.044,-0.358 0.066,-0.706 0.036,-1.009l0.002,-0.086Z"/></g><g><path d="M369.873,339.627c0.589,0.383 0.861,1.172 0.635,1.895c-0.273,0.835 -1.115,1.285 -1.894,0.993c-0.769,-0.293 -1.44,-1.035 -1.696,-2.419c-0.314,-1.674 0.005,-4.8 0.906,-8.907c3.363,-15.289 14.622,-45.267 24.546,-62.525c2.607,-4.541 5.143,-8.214 7.407,-10.557c1.735,-1.79 3.379,-2.829 4.804,-3.093c1.992,-0.373 3.572,1.099 4.183,4.429c1.606,8.841 -2.787,33.199 -3.548,40.073c-0.099,0.878 -0.836,1.505 -1.658,1.397c-0.81,-0.102 -1.384,-0.903 -1.287,-1.788c0.654,-5.896 4.101,-24.925 3.89,-35.405c-0.044,-2.027 -0.212,-3.708 -0.612,-4.836c-0.079,-0.227 -0.167,-0.42 -0.274,-0.577c-0.049,-0.079 -0.103,-0.144 -0.184,-0.134c-0.986,0.185 -2.064,1.023 -3.269,2.26c-2.123,2.199 -4.487,5.665 -6.933,9.933c-9.782,16.995 -20.861,46.513 -24.179,61.565c-0.674,3.047 -1.026,5.464 -0.939,7.003c0.01,0.243 0.07,0.539 0.102,0.693Z"/><path d="M403.679,297.709c0.201,-0.185 1.092,-1.011 1.828,-1.889c1.504,-1.812 3.509,-4.536 5.861,-7.762c6.227,-8.512 14.876,-20.41 23.41,-28.261c6.017,-5.532 12.049,-9.001 17.182,-8.382c1.405,0.168 2.444,0.748 3.205,1.57c1.074,1.143 1.61,2.847 1.694,4.836c0.181,4.048 -1.513,9.45 -2.32,12.205c-6.461,21.995 -17.533,44.548 -23.58,57.933c-1.526,3.373 -2.727,6.154 -3.447,8.178c-0.389,1.115 -0.646,1.935 -0.646,2.457c0.011,0.889 -0.651,1.612 -1.476,1.617c-0.813,0.01 -1.485,-0.706 -1.483,-1.59c-0.006,-0.6 0.146,-1.479 0.499,-2.602c0.659,-2.141 2.038,-5.389 3.891,-9.472c6.007,-13.287 17.003,-35.659 23.414,-57.495c0.735,-2.501 2.35,-7.397 2.189,-11.079c-0.075,-1.719 -0.572,-3.157 -2.267,-3.366c-4.491,-0.54 -9.657,2.793 -14.926,7.638c-8.399,7.72 -16.888,19.439 -23.005,27.81c-3.147,4.297 -5.688,7.739 -7.294,9.381c-0.633,0.652 -1.181,1.062 -1.591,1.256c-0.402,0.186 -0.757,0.233 -1.054,0.2c-0.821,-0.074 -1.421,-0.859 -1.345,-1.74c0.058,-0.754 0.597,-1.341 1.261,-1.443Z"/><path d="M453.473,332.782c-1.918,0.647 -3.769,1.12 -5.471,1.348c-3.709,0.497 -8.728,1.13 -12.013,-0.429c-2.663,-1.261 -3.755,-2.916 -4.06,-4.565c-0.42,-2.287 0.874,-4.889 2.51,-7.148c4.158,-5.759 13.913,-11.489 22.428,-13.264c6.093,-1.266 11.531,-0.411 14.243,3.258c0.084,0.121 0.15,0.251 0.208,0.388c1.588,-0.16 2.881,0.268 3.648,1.227c0.714,0.901 0.925,2.002 0.602,3.273c-0.325,1.238 -1.275,2.752 -2.791,4.315c-3.258,3.393 -9.19,7.304 -15.161,9.966c1.105,0.221 2.495,0.345 4.229,0.364c2.266,0.019 10.381,0.43 18.496,-5.384c0.689,-0.489 1.609,-0.282 2.056,0.457c0.456,0.737 0.26,1.734 -0.417,2.228c-8.857,6.335 -17.69,5.935 -20.158,5.91c-3.201,-0.027 -5.41,-0.437 -6.852,-1.049c-0.6,-0.262 -1.097,-0.565 -1.497,-0.895Zm14.679,-19.512c-0.969,-0.9 -2.246,-1.435 -3.716,-1.7c-2.058,-0.371 -4.466,-0.22 -7.009,0.306c-7.823,1.63 -16.829,6.798 -20.65,12.089c-0.61,0.841 -1.185,1.723 -1.579,2.607c-0.279,0.665 -0.467,1.317 -0.357,1.943c0.155,0.876 0.916,1.573 2.334,2.241c2.866,1.358 7.234,0.621 10.467,0.188c1.347,-0.181 2.807,-0.528 4.316,-1.008c-0.083,-1.038 0.189,-2.184 0.797,-3.368c1.612,-3.094 5.699,-6.665 7.918,-8.711c1.156,-1.073 4.431,-3.314 7.479,-4.587Zm-13.101,15.552c6.061,-2.463 12.351,-6.501 15.675,-9.95c0.889,-0.924 1.547,-1.778 1.873,-2.555c0.103,-0.251 0.255,-0.456 0.113,-0.622c-0.153,-0.197 -0.429,-0.167 -0.736,-0.165c-0.662,0.016 -1.456,0.234 -2.292,0.545c-2.805,1.055 -6.009,3.228 -7.085,4.223c-1.761,1.622 -4.814,4.23 -6.574,6.743c-0.425,0.611 -0.781,1.207 -0.974,1.781Z"/><path d="M490.488,332.632c-0.251,0.04 -0.486,0.065 -0.729,0.098c-4.068,0.439 -7.34,-0.468 -8.799,-2.939c-1.973,-3.314 -1.094,-7.913 2.04,-12.399c6.579,-9.397 22.937,-18.415 36.244,-12.496c1.455,0.65 2.283,1.601 2.706,2.673c0.407,1.055 0.43,2.286 0.069,3.602c-0.524,1.918 -1.889,4.101 -3.533,6.123c-2.337,2.868 -5.226,5.427 -6.668,6.439l-0.026,0.017c-2.318,1.974 -9.898,5.96 -16.914,7.93c-3.097,4.29 -6.354,8.852 -7.93,13.888c-5.408,17.379 -14.884,33.204 -24.439,42.333c-6.72,6.412 -13.543,9.492 -19.104,8.006c-5.503,-1.473 -6.791,-6.852 -4.489,-14.144c4.617,-14.698 24.115,-37.688 42.366,-43.745c0.781,-0.257 1.613,0.219 1.853,1.065c0.24,0.846 -0.201,1.75 -0.981,2.006c-17.407,5.773 -36.023,27.694 -40.431,41.71c-1.588,5.032 -1.402,8.974 2.385,9.991c4.825,1.287 10.616,-1.74 16.433,-7.299c9.237,-8.822 18.365,-24.151 23.601,-40.952c1.321,-4.243 3.765,-8.182 6.346,-11.907Zm23.904,-15.343c1.581,-1.651 3.168,-3.593 4.13,-5.438c0.574,-1.1 0.995,-2.121 0.713,-2.967c-0.143,-0.443 -0.536,-0.753 -1.114,-1.013c-12.044,-5.362 -26.798,2.959 -32.753,11.461c-1.2,1.712 -2.029,3.42 -2.361,5.036c-0.285,1.351 -0.186,2.619 0.447,3.682c0.413,0.704 1.121,1.097 1.997,1.33c1.131,0.297 2.506,0.317 4.007,0.149c1.176,-0.125 2.428,-0.365 3.716,-0.689c0.73,-1.016 1.442,-2.022 2.118,-3.011c1.293,-1.902 4.197,-5.46 7.598,-7.982c2.421,-1.796 5.108,-3.041 7.638,-2.991c2.219,0.039 3.246,0.984 3.696,1.98c0.071,0.142 0.123,0.294 0.168,0.453Zm-2.825,0.999c-0.029,-0.023 -0.107,-0.065 -0.169,-0.09c-0.24,-0.08 -0.542,-0.125 -0.926,-0.133c-1.965,-0.04 -4.021,1.034 -5.911,2.436c-2.869,2.127 -5.357,5.081 -6.626,6.869c5.517,-2.014 10.677,-4.844 12.14,-6.255c0.389,-0.376 1.005,-1.23 1.333,-2.093c0.064,-0.18 0.119,-0.359 0.151,-0.542c0.013,-0.054 0.011,-0.153 0.008,-0.192Z"/><path d="M549.32,305.893c5.064,-7.49 12.126,-17.328 18.034,-23.42c2.288,-2.367 4.426,-4.185 6.225,-5.145c1.51,-0.816 2.85,-1.049 3.922,-0.77c2.074,0.54 3.002,2.733 1.892,6.327c-1.742,5.633 -8.615,15.802 -17.827,25.307c-5.209,5.385 -9.985,11.075 -15.162,15.478c-0.772,0.652 -1.55,1.284 -2.341,1.879c0.813,0.663 1.915,1.089 3.151,1.353c2.671,0.579 5.929,0.373 8.71,-0.323c1.774,-0.449 3.363,-1.098 4.44,-1.909c0.469,-0.36 0.847,-0.707 0.973,-1.14c0.226,-0.849 1.056,-1.33 1.843,-1.079c0.786,0.251 1.232,1.142 0.998,1.998c-0.275,1.014 -1.001,2.009 -2.118,2.858c-1.33,0.997 -3.264,1.844 -5.469,2.397c-3.179,0.802 -6.902,1.011 -9.961,0.352c-2.144,-0.465 -3.954,-1.378 -5.159,-2.714c-4.044,2.562 -8.427,4.205 -13.467,4.379c-5.121,0.185 -8.62,-0.428 -10.818,-1.48c-1.82,-0.878 -2.863,-2.085 -3.348,-3.426c-0.786,-2.119 -0.164,-4.796 1.729,-7.539c3.534,-5.14 11.602,-10.842 19.384,-13.45c5.416,-1.815 10.699,-2.081 14.33,0.046l0.039,0.021Zm-1.762,2.633c-2.484,-1.298 -5.83,-1.192 -9.367,-0.322c-5.91,1.459 -12.357,5.135 -16.74,9.109c-2.092,1.891 -3.711,3.831 -4.516,5.641c-0.398,0.905 -0.593,1.75 -0.397,2.502c0.257,0.956 1.137,1.63 2.603,2.16c1.962,0.707 4.822,1.036 8.771,0.896c4.556,-0.162 8.517,-1.676 12.162,-4.013c-0.177,-1.065 -0.074,-2.208 0.244,-3.372c0.705,-2.59 2.539,-5.318 3.77,-7.245c0.849,-1.348 2.043,-3.198 3.47,-5.356Zm1.742,2.888c-1.119,1.701 -2.064,3.168 -2.77,4.286c-0.913,1.436 -2.242,3.356 -3.011,5.301c-0.052,0.126 -0.112,0.259 -0.152,0.39c1.874,-1.908 4.125,-4.751 5.27,-7.479c0.36,-0.86 0.616,-1.713 0.663,-2.498Zm2.432,2.77c2.562,-2.707 5.109,-5.55 7.789,-8.318c8.768,-9.044 15.404,-18.639 17.061,-23.997c0.216,-0.722 0.35,-1.347 0.334,-1.853c-0.01,-0.151 0.023,-0.3 -0.106,-0.336c-0.533,-0.133 -1.166,0.123 -1.909,0.52c-1.589,0.86 -3.472,2.499 -5.502,4.599c-5.868,6.054 -12.892,15.88 -17.873,23.274c0.198,0.356 0.355,0.718 0.465,1.099c0.47,1.482 0.339,3.216 -0.259,5.012Z"/><path d="M579.253,328.303c-3.297,1.227 -6.825,1.879 -10.027,1.45c-2.336,-0.314 -4.515,-1.19 -6.338,-2.781c-0.986,-0.858 -1.491,-1.859 -1.636,-2.922c-0.2,-1.406 0.264,-3.006 1.377,-4.601c3.421,-4.914 13.322,-10.222 19.265,-10.147c1.968,0.02 3.052,0.363 3.582,0.701c0.56,0.361 0.833,0.813 0.961,1.244c1.186,-0.37 2.407,-0.487 3.616,-0.273c1.764,0.318 2.614,1.517 2.81,3.128c0.199,1.676 -0.522,4.037 -1.764,5.933c-1.409,2.149 -4.621,4.817 -8.543,6.815c0.428,0.194 0.933,0.337 1.497,0.433c1.049,0.183 3.383,0.768 10.005,-1.605c0.774,-0.276 1.61,0.18 1.87,1.023c0.26,0.843 -0.168,1.752 -0.942,2.027c-7.528,2.699 -10.199,1.935 -11.395,1.726c-1.962,-0.338 -3.367,-1.12 -4.338,-2.151Zm2.489,-15.792c-4.483,0.006 -11.436,3.447 -15.222,7.123c-0.92,0.895 -1.657,1.799 -2.063,2.679c-0.369,0.802 -0.39,1.57 0.291,2.159c1.395,1.212 3.059,1.854 4.837,2.091c2.603,0.35 5.443,-0.143 8.147,-1.093c-0.505,-2.011 -0.171,-4.386 0.845,-6.661c0.712,-1.62 1.769,-3.161 3.022,-4.444c-0.071,-0.143 -0.136,-0.299 -0.174,-0.472c-0.102,-0.508 0.033,-1.008 0.317,-1.382Zm-1.233,11.822c0.154,-0.074 0.309,-0.148 0.454,-0.22c3.523,-1.739 6.463,-4.028 7.721,-5.939c0.673,-1.028 1.177,-2.237 1.241,-3.249c0.022,-0.366 0.007,-0.714 -0.356,-0.784c-3.412,-0.605 -6.797,2.634 -8.326,6.06c-0.626,1.411 -0.967,2.876 -0.734,4.132Z"/></g><g><path d="M666.796,285.117c0.015,-0.695 0.448,-1.32 1.099,-1.503c0.801,-0.223 1.605,0.291 1.817,1.147c0.048,0.217 0.1,0.64 -0.069,1.241c-0.208,0.802 -0.956,2.607 -2.128,5.106c-5.521,11.88 -20.521,40.443 -27.204,50.944c-0.463,0.728 -1.392,0.915 -2.06,0.412c-0.679,-0.5 -0.852,-1.502 -0.378,-2.233c6.623,-10.421 21.515,-38.773 26.997,-50.562c1.044,-2.242 1.811,-4.259 1.926,-4.552Z"/><path d="M668.969,290.796c4.741,-1.197 8.285,-2.429 12.115,-4.683c2.672,-1.569 5.309,-3.922 6.948,-6.483c0.98,-1.526 1.604,-3.108 1.546,-4.64c-0.099,-2.586 -2.219,-4.682 -7.115,-6.112c-12.811,-3.736 -38.419,2.801 -52.58,10.505c-3.268,1.776 -7.671,5.002 -9.887,8.275c-1.092,1.604 -1.731,3.181 -0.673,4.484c0.528,0.668 0.469,1.684 -0.149,2.263c-0.624,0.589 -1.556,0.514 -2.099,-0.157c-1.963,-2.441 -1.514,-5.484 0.527,-8.494c2.463,-3.633 7.318,-7.274 10.949,-9.244c14.717,-8.004 41.37,-14.616 54.692,-10.731c6.751,1.969 9.161,5.512 9.304,9.078c0.085,2.161 -0.7,4.444 -2.072,6.6c-1.889,2.954 -4.906,5.68 -7.965,7.48c-0.543,0.321 -1.078,0.616 -1.607,0.901c0.981,-0.002 1.808,0.013 2.411,0.018c8.913,0.053 18.858,2.767 25.928,6.977c4.993,2.983 8.536,6.761 9.57,10.801c2.212,8.583 -1.889,16.062 -9.614,22.088c-16.966,13.214 -51.668,19.437 -68.179,16.506c-5.28,-0.936 -9.375,-3.177 -11.731,-5.797c-1.813,-2.005 -2.666,-4.261 -2.495,-6.419c0.258,-3.356 3.107,-6.854 9.833,-8.665c0.795,-0.214 1.603,0.307 1.805,1.165c0.19,0.862 -0.286,1.737 -1.081,1.951c-2.654,0.714 -4.595,1.666 -5.882,2.806c-1.052,0.926 -1.635,1.941 -1.721,3.012c-0.097,1.328 0.539,2.666 1.655,3.905c2.028,2.241 5.567,4.067 10.104,4.87c13.703,2.432 40.368,-1.666 58.056,-10.938c5.77,-3.022 10.565,-6.584 13.59,-10.693c2.827,-3.842 4.036,-8.161 2.804,-12.926c-0.868,-3.379 -3.988,-6.366 -8.15,-8.85c-6.67,-3.984 -16.08,-6.532 -24.517,-6.579c-2.41,-0.018 -8.758,-0.215 -13.704,0.871l-0.729,0.181c-2.375,0.583 -7.746,1.902 -7.746,1.902c-0.794,0.198 -1.585,-0.335 -1.776,-1.197c-0.185,-0.855 0.311,-1.719 1.095,-1.93c0,0 3.898,-1.018 8.245,-2.029c0.097,-0.026 0.198,-0.046 0.295,-0.072Z"/><path d="M737.471,326.398c-1.645,0.863 -3.488,1.606 -5.539,2.142c-1.911,0.498 -6.814,0.747 -10.214,-0.291c-1.77,-0.548 -3.155,-1.477 -3.823,-2.695c-1.386,-2.508 -1.185,-5.524 0.332,-8.536c1.96,-3.934 6.221,-7.916 11.309,-10.413c5.687,-2.793 12.369,-3.711 17.933,-0.898c0.096,0.046 0.19,0.108 0.273,0.173c0.395,-0.075 0.76,-0.062 1.073,0.02c1.164,0.298 1.865,0.904 2.274,1.603c0.599,0.99 0.647,2.327 0.183,3.77c-0.788,2.427 -3.112,5.323 -3.681,6.12c-1.337,1.876 -3.739,4.881 -7.483,7.421c0.278,0.402 0.681,0.706 1.237,0.882c3.966,1.266 8.767,0.228 11.432,-0.617c0.854,-0.277 1.66,-0.621 1.764,-0.673c0.622,-0.446 1.471,-0.325 1.965,0.312c0.526,0.684 0.436,1.693 -0.202,2.262c-0.171,0.157 -1.152,0.691 -2.7,1.18c-3.049,0.971 -8.552,2.064 -13.09,0.618c-1.438,-0.455 -2.433,-1.282 -3.043,-2.38Zm6.871,-18.547c-6.932,-2.231 -15.229,1.448 -20.205,6.329c-1.746,1.709 -3.087,3.578 -3.76,5.419c-0.556,1.531 -0.637,3.029 0.061,4.31c0.203,0.366 0.595,0.618 1.047,0.846c0.658,0.323 1.466,0.55 2.317,0.71c2.738,0.509 6.027,0.322 7.428,-0.047c2.061,-0.539 3.886,-1.308 5.475,-2.197c-0.018,-1.495 0.32,-3.174 0.937,-4.912c1.421,-3.94 4.25,-8.147 6.7,-10.458Zm3.821,1.186c-0.054,0.015 -0.399,0.124 -0.615,0.253c-0.543,0.321 -1.133,0.829 -1.746,1.471c-2.038,2.096 -4.245,5.509 -5.386,8.714c-0.195,0.545 -0.363,1.075 -0.483,1.599c2.567,-2.033 4.292,-4.212 5.311,-5.646c0.496,-0.681 2.544,-3.13 3.223,-5.218c0.079,-0.236 0.13,-0.456 0.149,-0.667c0.01,-0.114 0.04,-0.218 -0.015,-0.298c-0.073,-0.123 -0.238,-0.158 -0.438,-0.208Z"/><path d="M779.883,307.682c1.723,-6.386 4.37,-13.482 7.276,-19.671c3.023,-6.443 6.335,-11.9 9.123,-14.644c1.499,-1.459 2.916,-2.19 4.115,-2.227c0.684,-0.025 1.22,0.196 1.643,0.566c0.405,0.344 0.718,0.831 0.883,1.509c0.271,1.07 0.112,2.915 -0.556,5.294c-2.585,9.112 -12.459,27.761 -21.445,39.334c-0.248,2.671 -0.172,4.818 0.618,6.066c0.336,0.521 1.128,0.872 2.028,1.193c1.681,0.603 3.79,0.885 5.215,0.66c0.799,-0.135 1.563,0.469 1.689,1.348c0.11,0.875 -0.44,1.698 -1.254,1.83c-1.788,0.291 -4.459,-0.03 -6.578,-0.785c-1.636,-0.592 -2.945,-1.486 -3.553,-2.434c-0.643,-1.018 -1.038,-2.468 -1.167,-4.251c-3.348,3.736 -6.483,6.199 -8.901,6.684c-7.785,1.572 -13.371,-1.934 -14.894,-6.606c-1.509,-4.651 0.769,-11.028 9.618,-15.308c3.238,-1.562 7.391,-2.157 10.969,-1.302c1.961,0.473 3.747,1.373 5.171,2.744Zm-0.894,3.615c-0.112,-0.088 -0.219,-0.187 -0.307,-0.314c-1.12,-1.556 -2.769,-2.462 -4.607,-2.904c-2.982,-0.713 -6.43,-0.206 -9.121,1.098c-6.821,3.289 -9.198,7.724 -8.034,11.309c1.161,3.562 5.61,5.707 11.552,4.512c0.929,-0.186 1.963,-0.79 3.1,-1.668c1.938,-1.506 4.099,-3.811 6.33,-6.603l0.167,-0.22c0.196,-1.608 0.509,-3.36 0.92,-5.21Zm21.055,-36.847c-0.261,0.102 -0.516,0.267 -0.807,0.472c-0.64,0.474 -1.325,1.159 -2.036,2.009c-2.358,2.81 -4.959,7.345 -7.399,12.535c-3.205,6.842 -6.114,14.826 -7.715,21.609c7.685,-11.096 15.257,-25.806 17.443,-33.509c0.323,-1.151 0.462,-2.474 0.514,-3.116Z"/><path d="M795.146,323.724c-0.356,-0.532 -0.66,-1.117 -0.903,-1.742c-1.091,-2.763 -1.014,-6.452 1.236,-11.035c1.239,-2.549 6.687,-8.732 13.713,-7.503c2.613,0.456 4.302,1.859 4.927,3.604c0.63,1.751 0.304,4.054 -1.689,6.473c-3.057,3.713 -6.961,7.749 -11.824,10.829c0.176,0.087 0.358,0.165 0.55,0.241c3.085,1.209 7.027,1.045 10.139,-0.459c0.745,-0.36 1.62,0 1.952,0.808c0.336,0.814 0,1.762 -0.745,2.122c-3.787,1.837 -8.591,2.027 -12.36,0.549c-0.972,-0.39 -1.872,-0.878 -2.683,-1.477c-2.508,1.255 -5.233,2.234 -8.204,2.804c-0.8,0.152 -1.576,-0.433 -1.724,-1.306c-0.132,-0.87 0.409,-1.706 1.209,-1.858c2.283,-0.44 4.418,-1.15 6.406,-2.05Zm2.758,-1.41c5.135,-2.962 9.194,-7.143 12.316,-10.929c1,-1.223 1.451,-2.281 1.131,-3.163c-0.314,-0.892 -1.298,-1.374 -2.635,-1.609c-5.442,-0.949 -9.651,3.861 -10.624,5.837c-1.687,3.448 -1.936,6.191 -1.111,8.279c0.226,0.582 0.546,1.115 0.923,1.585Z"/><path d="M834.061,306.252c2.074,-6.084 4.421,-12.123 5.679,-14.645c1.037,-2.105 4.223,-10.958 7.504,-15.708c0.976,-1.422 1.989,-2.497 2.958,-3.067c0.897,-0.543 1.791,-0.689 2.632,-0.47c2.648,0.692 3.426,3.317 2.412,7.107c-1.099,4.091 -4.26,9.785 -6.881,14.31c-2.42,4.153 -6.76,9.251 -11.734,14.226c-0.79,2.333 -1.522,4.658 -2.128,6.758c-0.891,3.106 -1.516,5.712 -1.523,7.079c-0.013,1.322 0.241,2.532 1.042,2.951c0.466,0.248 1.057,0.089 1.778,-0.36c2.496,-1.529 6.781,-5.715 8.917,-7.744c0.618,-0.579 1.556,-0.514 2.088,0.161c0.55,0.662 0.48,1.681 -0.138,2.26c-2.245,2.129 -6.778,6.509 -9.407,8.122c-1.825,1.119 -3.362,1.072 -4.533,0.451c-1.648,-0.867 -2.731,-3.124 -2.718,-5.859c0.007,-1.55 0.648,-4.501 1.664,-8.014c0.137,-0.481 0.274,-0.963 0.428,-1.457c-7.213,6.634 -14.923,12.481 -19.754,14.798c-0.745,0.36 -1.625,-0.007 -1.961,-0.822c-0.332,-0.807 0.015,-1.758 0.761,-2.118c5.542,-2.651 14.995,-10.119 22.914,-17.959Zm5.084,-5.331c2.808,-3.154 5.167,-6.202 6.704,-8.855c2.478,-4.272 5.504,-9.628 6.541,-13.495c0.228,-0.848 0.368,-1.6 0.325,-2.232c-0.03,-0.428 -0.175,-0.746 -0.569,-0.855c-0.262,-0.064 -0.509,0.13 -0.785,0.339c-0.58,0.45 -1.151,1.151 -1.736,1.999c-3.191,4.623 -6.257,13.261 -7.273,15.305c-0.767,1.54 -1.946,4.414 -3.207,7.794Z"/><path d="M854.996,294.971c-3.123,0.094 -25.334,1.112 -29.25,1.459c-0.819,0.07 -1.423,0.852 -1.35,1.729c0.068,0.887 0.78,1.545 1.594,1.469c3.895,-0.342 25.985,-1.351 29.092,-1.449c0.825,-0.024 1.468,-0.769 1.442,-1.651c-0.031,-0.889 -0.708,-1.588 -1.528,-1.557Z"/><path d="M855.494,306.317l0.047,-0.116c3.661,-10.298 8.518,-22.086 12.102,-28.347c1.18,-2.064 2.251,-3.551 3.106,-4.322c0.615,-0.546 1.194,-0.797 1.665,-0.853c1.659,-0.2 2.887,0.374 3.686,1.414c0.724,0.932 1.117,2.343 0.972,4.152c-0.155,1.908 -0.92,4.368 -2.445,7.129c-3.453,6.21 -8.838,14.265 -16.581,22.725c-0.954,2.702 -1.82,5.293 -2.547,7.625c1.006,-0.406 2.258,-0.862 3.328,-1.102c1.023,-0.236 1.987,-0.297 2.735,-0.157l0.1,-0.059l0.132,-0.067c5.033,-5.643 10.521,-11.915 13.534,-14.37c0.949,-0.764 1.737,-1.19 2.262,-1.316c0.605,-0.139 1.097,-0.017 1.464,0.217c0.611,0.384 0.945,0.993 0.892,1.872c-0.04,0.567 -0.448,1.558 -1.321,2.706c-2.789,3.696 -10.685,10.761 -14.484,13.205c-0.222,0.139 -0.428,0.265 -0.632,0.376l-0.507,0.573l-0.302,0.336c1.734,1.541 3.289,3.743 4.636,6.326c0.044,0.099 0.159,0.044 0.274,0.045c0.2,-0.006 0.424,-0.051 0.661,-0.114c1.08,-0.299 2.386,-1.063 3.738,-2.055c2.612,-1.894 5.356,-4.626 7.015,-6.938c0.508,-0.7 0.907,-1.356 1.147,-1.928c0.093,-0.216 0.169,-0.546 0.186,-0.614c-0.183,-0.832 0.265,-1.675 1.03,-1.913c0.787,-0.244 1.614,0.248 1.837,1.101c0.15,0.547 0.137,1.226 -0.085,2.008c-0.214,0.756 -0.674,1.674 -1.323,2.667c-2.214,3.367 -6.862,7.802 -10.517,9.81c-1.577,0.869 -3.029,1.276 -4.099,1.167c-1.097,-0.11 -1.934,-0.654 -2.457,-1.665c-1.095,-2.126 -2.355,-3.995 -3.759,-5.3c-0.111,-0.105 -0.233,-0.207 -0.344,-0.312c-0.605,0.671 -1.197,1.307 -1.759,1.911c-2.73,2.918 -4.977,4.952 -6.013,5.334c-1.024,0.379 -1.714,-0.007 -2.127,-0.547c-0.291,-0.382 -0.594,-1.277 -0.444,-2.659c0.225,-2.117 1.306,-6.179 2.891,-11.131c-2.065,2.04 -4.281,4.082 -6.633,6.112c-0.636,0.553 -1.57,0.439 -2.085,-0.248c-0.51,-0.696 -0.398,-1.711 0.238,-2.263c4.021,-3.465 7.606,-6.97 10.786,-10.415Zm2.239,12.513c-0.616,-0.08 -1.251,-0.02 -1.92,0.192c-0.54,0.232 -0.934,0.418 -1.07,0.478c-0.164,0.076 -0.304,0.114 -0.394,0.13c-0.385,1.374 -0.671,2.578 -0.87,3.577c0.925,-0.853 2.051,-2.005 3.315,-3.362c0.307,-0.328 0.62,-0.667 0.939,-1.015Zm3.354,-18.965c4.861,-6.001 8.457,-11.582 10.987,-16.146c1.523,-2.728 2.206,-5.032 2.045,-6.64c-0.05,-0.439 -0.138,-0.804 -0.387,-1.015c-0.213,-0.197 -0.519,-0.233 -0.889,-0.197c-0.101,0.075 -0.482,0.407 -0.746,0.725c-0.578,0.711 -1.222,1.71 -1.931,2.949c-2.665,4.663 -6.042,12.432 -9.079,20.324Z"/><path d="M880.133,315.348c0.001,-0.127 -0.003,-0.261 -0.001,-0.405c0.047,-1.052 0.634,-2.465 1.753,-3.957c2.12,-2.841 6.207,-6.284 10.387,-8.529c2.897,-1.558 5.85,-2.52 8.244,-2.434c3.617,0.122 5.688,1.414 6.837,3.05c1.128,1.586 1.432,3.585 1.247,5.54c-0.243,2.661 -1.38,5.191 -1.987,6.116c-4.594,7.009 -9.764,10.95 -14.258,12.54c-3.232,1.149 -6.142,1.091 -8.35,0.153c-3.889,-1.653 -5.949,-5.957 -3.872,-12.074Zm2.325,2.852c-0.336,1.773 -0.144,3.262 0.504,4.397c0.841,1.449 2.424,2.222 4.372,2.309c4.673,0.21 11.202,-3.389 16.854,-12.033c0.461,-0.695 1.285,-2.593 1.462,-4.578c0.108,-1.148 0.01,-2.336 -0.652,-3.27c-0.759,-1.074 -2.196,-1.711 -4.585,-1.79c-1.991,-0.076 -4.413,0.807 -6.819,2.098c-3.779,2.033 -7.482,5.11 -9.399,7.675c-0.368,0.48 -0.66,0.94 -0.861,1.367c-0.091,0.199 -0.168,0.474 -0.213,0.629c1.02,0.607 2.382,0.677 3.785,0.529c2.524,-0.258 5.205,-1.282 6.835,-2.149c0.726,-0.387 1.683,-1.065 2.404,-1.918c0.539,-0.638 1.014,-1.369 0.897,-2.179c-0.126,-0.879 0.435,-1.705 1.238,-1.834c0.814,-0.132 1.574,0.466 1.7,1.345c0.206,1.453 -0.239,2.851 -1.071,4.075c-1.022,1.522 -2.657,2.748 -3.868,3.392c-1.872,0.996 -4.949,2.166 -7.849,2.47c-1.715,0.176 -3.369,0.034 -4.734,-0.535Z"/></g></g></svg>