<?xml version="1.0" encoding="UTF-8" standalone="no"?><!DOCTYPE svg PUBLIC "-//W3C//DTD SVG 1.1//EN" "http://www.w3.org/Graphics/SVG/1.1/DTD/svg11.dtd"><svg width="100%" height="100%" viewBox="0 0 600 600" version="1.1" xmlns="http://www.w3.org/2000/svg" xmlns:xlink="http://www.w3.org/1999/xlink" xml:space="preserve" xmlns:serif="http://www.serif.com/" style="fill-rule:evenodd;clip-rule:evenodd;stroke-linecap:round;stroke-linejoin:round;stroke-miterlimit:1.5;"><path d="M51.502,197.495c-2.027,-4.375 -7.091,-110.008 3.02,-123.041c36.773,-47.391 153.536,-42.854 208.364,-43.018c74.659,-0.224 134.18,-2.655 209.185,6.943c49.92,6.387 96.252,2.908 115.365,62.422c14.787,46.043 20.739,112.93 -28.131,127.12c-18.865,5.478 -40.561,0.737 -55.774,25.573c-15.365,25.083 -12.853,67.268 -9.87,104.776c2.708,34.055 4.416,56.793 21.009,101.858c10.104,27.439 34.853,56.384 13.935,86.89c-10.018,14.609 -35.949,25.026 -80.225,25.947c-107.751,2.241 -302.189,14.027 -399.004,-35.313c-24.505,-12.489 -45.859,-68.85 35.556,-75.759c45.437,-3.856 234.72,17.456 263.241,11.807c11.038,-2.188 19.646,-0.458 31.027,-16.567c18.469,-26.142 28.724,-216.934 -0.919,-227.924c-38.81,-14.388 -300.503,-6.488 -320.088,-7.027c-3.831,-0.105 -6.44,-18.394 -6.733,-24.493c-0.147,-3.09 513.982,3.103 537.194,4.411" style="fill:none;stroke:#000;stroke-width:2.44px;"/><path d="M519.817,235.727c0.107,0.085 2.939,-178.253 2.887,-190.377" style="fill:none;stroke:#000;stroke-width:2.44px;"/><path d="M389.945,246.955c3.292,107.836 1.389,169.392 -45.213,227.068" style="fill:none;stroke:#000;stroke-width:2.44px;"/><path d="M204.045,513.686c-56.239,59.829 -259.636,-14.217 -112.42,-41.781c27.024,-5.06 143.2,9.035 112.42,41.781Z" style="fill:none;stroke:#000;stroke-width:2.44px;"/><path d="M67.897,501.641c3.179,5.971 3.01,10.689 1.049,15.739" style="fill:none;stroke:#000;stroke-width:2.44px;"/><path d="M69.305,517.631c14.847,3.797 45.994,21.804 105.294,7.573" style="fill:none;stroke:#000;stroke-width:2.44px;"/><path d="M9.065,400.643c8.778,46.649 35.657,93.625 78.164,111.33c42.34,17.636 100.262,6.17 131.355,-34.003c12.938,-16.716 27.224,-39.624 32.922,-62.883c10.584,-43.202 12.469,-96.266 12.902,-105.402c0.019,-0.38 -8.063,6.255 -16.577,10.719c-26.981,14.148 -211.097,13.023 -241.659,-24.396c-5.014,-6.138 -4.108,67.433 2.893,104.635Z" style="fill:none;stroke:#000;stroke-width:2.44px;"/><path d="M5.599,295.788c1.765,-8.645 37.056,-15.038 66.302,-14.511c21.896,0.395 100.448,3.788 123.694,5.02c22.561,1.194 56.962,7.333 68.839,23.288" style="fill:none;stroke:#000;stroke-width:2.44px;"/><path d="M269.89,387.132c-6.145,-6.558 -10.186,-20.743 -7.115,-32.566c2.137,-8.222 12.448,-15.685 23.464,-15.955c37.727,-0.926 41.208,35.024 16.772,63.813c-22.177,26.129 -45.265,22.202 -69.175,53.373" style="fill:none;stroke:#000;stroke-width:2.43px;"/><path d="M123.654,253.672c0,7.509 1.248,76.597 1.248,69.883" style="fill:none;stroke:#000;stroke-width:2.44px;"/><path d="M127.272,323.816c52.704,3.267 65.505,40.062 64.749,72.766c-2.405,104.022 -118.989,105.422 -129.973,27.757c-6.48,-45.818 9.222,-103.995 65.224,-100.523Z" style="fill:none;stroke:#000;stroke-width:2.44px;"/><path d="M125.096,324.532c19.259,19.269 25.681,68.891 22.12,83.612c-2.035,8.417 -18.978,65.518 -27.414,70.889" style="fill:none;stroke:#000;stroke-width:2.44px;"/><path d="M123.355,324.329c-13.72,13.458 -33.157,57.78 -24.338,86.501c7.87,25.635 19.243,68.154 19.791,66.913" style="fill:none;stroke:#000;stroke-width:2.44px;"/><path d="M118.881,478.192c2.728,-18.232 3.52,-46.106 3.994,-65.834c0.463,-19.254 2.983,-65.123 1.837,-87.703" style="fill:none;stroke:#000;stroke-width:2.44px;"/><path d="M125.16,323.607c91.14,63.364 40.728,128.048 -4.755,156.116" style="fill:none;stroke:#000;stroke-width:2.44px;"/><path d="M125.053,323.712c-47.801,16.553 -75.103,93.632 -10.464,154.453" style="fill:none;stroke:#000;stroke-width:2.44px;"/><path d="M594.215,188.431c20.76,-0.243 -544.135,-6.734 -544.135,-6.98" style="fill:none;stroke:#000;stroke-width:2.44px;"/><path d="M57.535,222.612c0.877,5.962 1.004,27.407 2.61,27.698c9.679,1.746 124.32,4.375 131.286,-1.449c2.028,-1.695 1.104,-21.01 0.61,-27.317" style="fill:none;stroke:#000;stroke-width:2.44px;"/><path d="M174.456,525.005c-0.583,-0.694 -3.234,-5.771 -1.312,-12.954" style="fill:none;stroke:#000;stroke-width:2.44px;"/></svg>