<?xml version="1.0" encoding="UTF-8" standalone="no"?><!DOCTYPE svg PUBLIC "-//W3C//DTD SVG 1.1//EN" "http://www.w3.org/Graphics/SVG/1.1/DTD/svg11.dtd"><svg width="100%" height="100%" viewBox="0 0 600 600" version="1.1" xmlns="http://www.w3.org/2000/svg" xmlns:xlink="http://www.w3.org/1999/xlink" xml:space="preserve" xmlns:serif="http://www.serif.com/" style="fill-rule:evenodd;clip-rule:evenodd;stroke-linecap:round;stroke-linejoin:round;stroke-miterlimit:1.5;"><path d="M119.515,208.266c-3.262,32.413 89.492,47.795 109.429,51.437c30.365,5.551 60.414,7.112 90.282,8.287c11.576,0.455 37.617,0.066 62.962,-2.508c25.461,-2.584 49.92,-9.945 53.334,-11.627c6.054,-2.984 11.943,-6.613 16.768,-11.261c19.001,-18.321 9.419,-31.536 -10.333,-43.83c-24.378,-15.17 -56.25,-22.622 -84.298,-26.806c-19.4,-2.896 -32.435,-5.772 -52.046,-6.71" style="fill:none;stroke:#000;stroke-width:2.89px;"/><path d="M288.522,164.142c-46.343,-0.848 -164.69,7.561 -168.96,44.191" style="fill:none;stroke:#000;stroke-width:2.89px;"/><path d="M305.403,211.662c-0.039,-14.915 -2.444,-85.138 -0.183,-100.785c0.36,-2.516 15.619,-4.246 23.811,-12.381c12.478,-12.384 18.986,-33.942 13.428,-51.055c-5.038,-15.517 -19.855,-40.246 -52.812,-39.421c-27.365,0.684 -43.959,14.225 -47.897,37.214c-2.879,16.804 1.527,32.33 12.131,44.826c11.979,14.11 17.712,14.704 28.958,19.16c5.309,2.1 7.121,94.306 6.907,102.671" style="fill:none;stroke:#000;stroke-width:2.89px;"/><path d="M289.596,212.135c0.705,0.864 11.914,3.986 15.643,-0.238" style="fill:none;stroke:#000;stroke-width:2.89px;"/><path d="M304.252,280.133c-0.379,16.26 -2.002,127.963 -2.228,150.221" style="fill:none;stroke:#000;stroke-width:2.89px;"/><path d="M289.931,278.884c-1.044,61.776 -2.943,128.537 -3.163,151.502" style="fill:none;stroke:#000;stroke-width:2.89px;"/><path d="M34.122,404.721c31.263,-24.456 119.484,-47.436 251.963,-40.396" style="fill:none;stroke:#000;stroke-width:2.89px;"/><path d="M304.622,365.545c13.015,0.119 57.333,3.093 109.017,10.216c39.74,5.48 150.476,24.511 178.285,81.881" style="fill:none;stroke:#000;stroke-width:2.89px;"/><path d="M34.589,404.35c-15.706,8.978 -40.825,49.01 -28.119,76.811c19.142,41.877 67.757,57.293 111.445,67.076c125.149,28.024 316.624,23.494 382.13,12.17c62.663,-10.832 110.921,-60.532 91.831,-103.126" style="fill:none;stroke:#000;stroke-width:2.89px;"/><path d="M44.952,458.802c16.835,29.527 78.67,62.138 146.894,67.864c91.826,7.709 178.708,17.385 263.055,-5.763c41.18,-11.301 69.449,-24.189 84.584,-48.719" style="fill:none;stroke:#000;stroke-width:2.89px;"/><path d="M252.755,61.921c0.805,7.871 7.418,19.628 14.959,26.982c6.644,6.49 20.983,11.634 36.49,7.811c25.439,-6.265 29.632,-28.273 28.432,-40.526c-2.418,-24.87 -30.707,-44.162 -54.932,-36.829c-19.996,6.059 -26.471,27.691 -24.949,42.562Z" style="fill:none;stroke:#000;stroke-width:2.89px;"/><path d="M132.115,229.239c17.647,15.169 50.894,34.859 103.287,42.942c39.936,6.159 90.856,12.123 132.318,5.569c53.055,-8.388 80.679,-22.119 93.245,-46.279" style="fill:none;stroke:#000;stroke-width:2.89px;"/><path d="M39.208,519.486c36.686,31.16 104.8,54.4 136.147,58.713c58.951,8.111 124.056,11.44 160.655,12.006c43.012,0.666 150.276,9.92 224.471,-55.208" style="fill:none;stroke:#000;stroke-width:2.89px;"/><path d="M286.845,430.601c3.055,3.015 11.068,4.296 15.315,0.316" style="fill:none;stroke:#000;stroke-width:2.88px;"/><path d="M371.257,270.285c-0.021,-0.121 -0.18,0.232 -0.313,0.218" style="fill:none;stroke:#000;stroke-width:2.89px;"/><path d="M364.488,272.788c-0.062,-0.071 -0.012,0.05 -0.057,0.045" style="fill:none;stroke:#000;stroke-width:2.89px;"/><path d="M354.697,275.103c0.056,-0.042 0.121,0.083 0.195,0.09" style="fill:none;stroke:#000;stroke-width:2.89px;"/><path d="M355.286,271.311c-0.145,0.036 -0.024,0.095 -0.128,0.085" style="fill:none;stroke:#000;stroke-width:2.89px;"/><path d="M343.165,272.878c-0.121,-0.065 -0.198,0.164 -0.385,-0.046" style="fill:none;stroke:#000;stroke-width:2.89px;"/><path d="M337.741,275.833c0.065,0.117 -0.073,0.306 -0.182,0.175" style="fill:none;stroke:#000;stroke-width:2.89px;"/><path d="M328.603,273.573c-0.064,-0.107 -0.148,-0.021 -0.219,0.031" style="fill:none;stroke:#000;stroke-width:2.89px;"/><path d="M349.446,276.805c0.079,0.118 -0.507,0.155 -0.625,0.141" style="fill:none;stroke:#000;stroke-width:2.89px;"/><path d="M381.915,268.556c-0.142,0.089 -0.097,0.106 -0.192,-0.013" style="fill:none;stroke:#000;stroke-width:2.89px;"/><path d="M378.048,270.875c0.034,0.104 0.02,0.123 -0.098,0.112" style="fill:none;stroke:#000;stroke-width:2.89px;"/><path d="M394.688,269.137c-0.032,-0.049 0.05,0.117 0.068,0.176" style="fill:none;stroke:#000;stroke-width:2.89px;"/><path d="M388.94,268.532c0.043,-0.021 0.063,0.078 -0.07,0.063" style="fill:none;stroke:#000;stroke-width:2.89px;"/><path d="M403.238,266.099c-0.043,0.024 0.138,0.109 0.159,-0.045" style="fill:none;stroke:#000;stroke-width:2.89px;"/><path d="M414.489,262.698c0.06,0.022 0.029,0.001 0.02,0.097" style="fill:none;stroke:#000;stroke-width:2.89px;"/><path d="M409.529,264.926c0.119,0.031 0.067,0.151 0.222,0.03" style="fill:none;stroke:#000;stroke-width:2.89px;"/><path d="M423.569,261.454c0,-0.002 -0.069,0.08 0.079,0.094" style="fill:none;stroke:#000;stroke-width:2.89px;"/><path d="M335.519,270.475c-0.168,0.17 0.2,0.47 0.177,0.025" style="fill:none;stroke:#000;stroke-width:2.89px;"/><path d="M329.524,278.468c0.164,0.042 0.102,-0.008 0.114,0.226" style="fill:none;stroke:#000;stroke-width:2.89px;"/><path d="M318.445,270.897c-0.042,0.049 1.16,-0.605 0.119,-0.553" style="fill:none;stroke:#000;stroke-width:2.89px;"/><path d="M320.094,275.37c-0.162,-0.306 1.017,0.044 1,-0.297" style="fill:none;stroke:#000;stroke-width:2.89px;"/><path d="M309.608,279.082c0.008,0.151 0.185,-0.429 0.176,-0.61" style="fill:none;stroke:#000;stroke-width:2.89px;"/><path d="M311.219,270.432c0.097,0.169 -0.26,0.09 -0.362,0.095" style="fill:none;stroke:#000;stroke-width:2.89px;"/><path d="M301.457,273.923c-0.032,-0.064 -0.041,0.06 -0.048,-0.092" style="fill:none;stroke:#000;stroke-width:2.89px;"/><path d="M296.623,277.487c-0.071,0.054 -0.019,0.505 -0.043,0.025" style="fill:none;stroke:#000;stroke-width:2.89px;"/><path d="M298.778,271.483c0.021,0.118 0.018,0.068 0.007,-0.151" style="fill:none;stroke:#000;stroke-width:2.89px;"/><path d="M288.139,269.196c0.135,0.039 0.231,-0.38 -0.121,-0.363" style="fill:none;stroke:#000;stroke-width:2.89px;"/><path d="M284.202,274.539c-0.151,-0.089 0.136,0.061 0.13,-0.057" style="fill:none;stroke:#000;stroke-width:2.89px;"/><path d="M291.252,272.07c0.107,0.08 0.045,0.018 0.056,0.242" style="fill:none;stroke:#000;stroke-width:2.89px;"/><path d="M275.08,269.048c0,0.008 0,0.018 0.001,0.027" style="fill:none;stroke:#000;stroke-width:2.89px;"/><path d="M268.747,276.172c0.005,0.101 -0.01,-0.203 -0.015,-0.304" style="fill:none;stroke:#000;stroke-width:2.89px;"/><path d="M312.646,273.979c0.033,0.071 0.097,0.175 0.049,0.098" style="fill:none;stroke:#000;stroke-width:2.89px;"/><path d="M268.334,269.359c0.242,0.153 0.016,0.33 -0.11,0.463" style="fill:none;stroke:#000;stroke-width:2.89px;"/><path d="M276.592,274.894c0.084,-0.081 -0.354,-0.008 -0.383,-0.007" style="fill:none;stroke:#000;stroke-width:2.89px;"/><path d="M256.608,266.782c-0.079,-0.107 -0.002,0.255 0.004,0.383" style="fill:none;stroke:#000;stroke-width:2.89px;"/><path d="M254.775,272.179c-0.006,-0.133 0.003,0.05 0.007,0.135" style="fill:none;stroke:#000;stroke-width:2.89px;"/><path d="M261.269,271.534c-0.098,0.102 0.061,0.049 0.149,0.044" style="fill:none;stroke:#000;stroke-width:2.89px;"/><path d="M263.864,266.68c0.039,-0.099 -0.024,0.124 -0.17,0.131" style="fill:none;stroke:#000;stroke-width:2.89px;"/><path d="M251.973,265.812c0.046,0.045 0.133,0.019 0.192,0.016" style="fill:none;stroke:#000;stroke-width:2.89px;"/><path d="M246.161,266.868c0.027,-0.042 0.005,0.103 0.008,0.156" style="fill:none;stroke:#000;stroke-width:2.89px;"/><path d="M250.221,269.278c0.042,-0.031 -0.007,0.153 -0.051,0.155" style="fill:none;stroke:#000;stroke-width:2.89px;"/><path d="M248.14,271.767c0.056,-0.053 -0.016,-0.032 -0.045,-0.031" style="fill:none;stroke:#000;stroke-width:2.89px;"/><path d="M237.754,269.523c-0.042,0.053 -0.019,0.219 -0.028,0.041" style="fill:none;stroke:#000;stroke-width:2.89px;"/><path d="M242.62,265.124c0.034,0.091 0.05,0.119 -0.068,0.124" style="fill:none;stroke:#000;stroke-width:2.89px;"/><path d="M242.987,270.719c0.012,-0.059 0.131,-0.038 -0.001,-0.031" style="fill:none;stroke:#000;stroke-width:2.89px;"/><path d="M235.758,263.707c-0.028,0.027 -0.081,0.134 -0.083,0.093" style="fill:none;stroke:#000;stroke-width:2.89px;"/><path d="M238.389,266.059c-0.001,-0.02 0.065,0.128 0.183,0.122" style="fill:none;stroke:#000;stroke-width:2.89px;"/><path d="M228.19,267.561c0.031,0.047 0.025,0.216 0.016,0.034" style="fill:none;stroke:#000;stroke-width:2.89px;"/><path d="M231.553,269.575c0.042,-0.044 0.076,0.05 -0.041,0.056" style="fill:none;stroke:#000;stroke-width:2.89px;"/><path d="M231.258,263.36c0.044,0.014 0.014,0 0.019,0.088" style="fill:none;stroke:#000;stroke-width:2.89px;"/><path d="M222.249,263.692c-0.061,-0.05 -0.082,0.13 0.05,0.123" style="fill:none;stroke:#000;stroke-width:2.89px;"/><path d="M234.573,266.465c-0.103,-0.004 0.089,0.319 -0.101,0.328" style="fill:none;stroke:#000;stroke-width:2.89px;"/><path d="M226.914,261.158c-0.015,-0.005 -0.03,-0.011 -0.044,-0.016" style="fill:none;stroke:#000;stroke-width:2.89px;"/><path d="M224.993,266.544c-0.015,-0.006 0.004,0.07 -0.026,0.071" style="fill:none;stroke:#000;stroke-width:2.89px;"/><path d="M216.193,266.638c0.075,0.026 -0.022,0.139 0.034,0.088" style="fill:none;stroke:#000;stroke-width:2.89px;"/><path d="M218.877,260.622c-0.027,0.048 -0.008,0.13 -0.006,0.186" style="fill:none;stroke:#000;stroke-width:2.89px;"/><path d="M213.569,260.001c-0.058,0.023 -0.014,0.313 -0.021,0.176" style="fill:none;stroke:#000;stroke-width:2.89px;"/><path d="M211.349,263.231c-0.031,-0.026 -0.008,0.137 -0.007,0.152" style="fill:none;stroke:#000;stroke-width:2.89px;"/><path d="M207.545,257.409c-0.031,-0.029 0.067,0.15 0.062,0.049" style="fill:none;stroke:#000;stroke-width:2.89px;"/><path d="M205.907,263.458c-0.027,0.05 -0.004,0.217 -0.013,0.035" style="fill:none;stroke:#000;stroke-width:2.89px;"/><path d="M203.43,258.295c0.032,0.049 0.021,0.128 0.024,0.185" style="fill:none;stroke:#000;stroke-width:2.89px;"/><path d="M200.993,261.007c-0.065,-0.118 -0.009,0.111 -0.009,0.123" style="fill:none;stroke:#000;stroke-width:2.89px;"/><path d="M198.296,256.447c0.095,0.137 -0.172,0.098 -0.245,0.102" style="fill:none;stroke:#000;stroke-width:2.89px;"/><path d="M194.778,259.29c-0.056,0.065 -0.204,0.041 -0.277,0.045" style="fill:none;stroke:#000;stroke-width:2.89px;"/><path d="M189.05,254.975c0.042,-0.042 -0.132,-0.008 -0.147,-0.007" style="fill:none;stroke:#000;stroke-width:2.89px;"/><path d="M187.58,258.797c-0.047,-0.07 -0.176,-0.004 -0.264,0" style="fill:none;stroke:#000;stroke-width:2.89px;"/><path d="M193.599,255.407c0.028,-0.028 -0.033,0.224 -0.209,0.233" style="fill:none;stroke:#000;stroke-width:2.89px;"/><path d="M183.962,252.576c0.032,0.054 0.031,0.019 0.035,0.111" style="fill:none;stroke:#000;stroke-width:2.89px;"/><path d="M181.632,255.068c0.06,0.029 0.044,0.005 0.049,0.098" style="fill:none;stroke:#000;stroke-width:2.89px;"/><path d="M178.74,251.012c0.085,-0.051 0.049,0.104 0.047,0.06" style="fill:none;stroke:#000;stroke-width:2.89px;"/><path d="M174.2,249.879c-0.027,0.047 -0.033,-0.059 -0.109,-0.121" style="fill:none;stroke:#000;stroke-width:2.89px;"/><path d="M175.441,253.25c0.001,0.008 0.001,0.018 0.002,0.027" style="fill:none;stroke:#000;stroke-width:2.89px;"/><path d="M169.007,248.023c0.03,0.024 0.037,0.153 0.035,0.112" style="fill:none;stroke:#000;stroke-width:2.89px;"/><path d="M170.844,251.546c-0.059,0.013 -0.023,0.128 -0.021,0.169" style="fill:none;stroke:#000;stroke-width:2.89px;"/><path d="M164.87,245.844c0.057,-0.051 -0.246,0.067 -0.056,0.057" style="fill:none;stroke:#000;stroke-width:2.89px;"/><path d="M162.355,246.694c-0.121,-0.067 -0.348,0.096 -0.357,-0.081" style="fill:none;stroke:#000;stroke-width:2.89px;"/><path d="M157.026,243.29c0.04,-0.075 0.044,0.285 0.099,0.224" style="fill:none;stroke:#000;stroke-width:2.89px;"/><path d="M348.325,271.14c0.009,-0.126 -0.245,0.088 -0.377,0.094" style="fill:none;stroke:#000;stroke-width:2.89px;"/><path d="M360.593,276.322c-0.066,0.16 0.061,0.339 -0.139,0.164" style="fill:none;stroke:#000;stroke-width:2.89px;"/><path d="M366.726,269.621c-0.096,0.143 -0.038,-0.156 -0.04,-0.197" style="fill:none;stroke:#000;stroke-width:2.89px;"/><path d="M369.783,274.92c0.026,-0.067 -0.001,-0.026 0.145,-0.033" style="fill:none;stroke:#000;stroke-width:2.89px;"/><path d="M385.43,272.117c-0.059,-0.003 0.084,-0.082 0.081,-0.133" style="fill:none;stroke:#000;stroke-width:2.89px;"/><path d="M398.279,264.82c0.109,0.122 0.586,0.247 0.425,0.255" style="fill:none;stroke:#000;stroke-width:2.89px;"/><path d="M325.55,270.407c0.013,-0.016 0.164,0.059 -0.097,-0.173" style="fill:none;stroke:#000;stroke-width:2.89px;"/><path d="M342.825,278.153c0.085,-0.066 0.195,0.078 0.313,0.072" style="fill:none;stroke:#000;stroke-width:2.89px;"/><path d="M307.143,273.86c0.091,0.06 0.042,-0.031 0.039,-0.089" style="fill:none;stroke:#000;stroke-width:2.89px;"/><path d="M319.534,278.274c0.006,0.124 -0.496,0.086 -0.381,0.024" style="fill:none;stroke:#000;stroke-width:2.89px;"/><path d="M304.915,269.879c0.06,0.011 0.015,-0.002 0.022,0.128" style="fill:none;stroke:#000;stroke-width:2.89px;"/><path d="M281.185,269.756c0,0 -0.458,-0.357 -0.12,-0.055" style="fill:none;stroke:#000;stroke-width:2.89px;"/><path d="M290.546,275.297c-0.069,0.09 0.032,0.054 0.091,0.051" style="fill:none;stroke:#000;stroke-width:2.89px;"/><path d="M324.911,277.922c0.013,-0.034 -0.365,0.054 -0.375,-0.143" style="fill:none;stroke:#000;stroke-width:2.89px;"/><path d="M271.608,271.652c-0.013,0.023 -0.041,0.046 -0.07,0.07" style="fill:none;stroke:#000;stroke-width:2.89px;"/><path d="M265.812,271.852c0.227,0.128 -0.048,-0.082 -0.171,-0.187" style="fill:none;stroke:#000;stroke-width:2.89px;"/><path d="M279.085,273.912c0.236,0.009 0.104,0.007 0.412,-0.008" style="fill:none;stroke:#000;stroke-width:2.89px;"/><path d="M293.665,271.528c0.02,0.106 -0.156,-0.189 -0.274,-0.183" style="fill:none;stroke:#000;stroke-width:2.89px;"/><path d="M303.097,277.611c-0.162,-0.291 -0.023,0.43 -0.022,0.444" style="fill:none;stroke:#000;stroke-width:2.89px;"/><path d="M315.237,278.171c-0.096,0.156 -0.057,0.049 -0.042,0.346" style="fill:none;stroke:#000;stroke-width:2.89px;"/><path d="M316.388,274.159c-0.069,0.081 0.229,-0.134 0.224,-0.244" style="fill:none;stroke:#000;stroke-width:2.89px;"/><path d="M333.656,274.674c0.087,-0.029 0.077,0.666 0.043,-0.014" style="fill:none;stroke:#000;stroke-width:2.89px;"/><path d="M335.587,279.487c-0.008,-0.16 0.139,0.136 -0.272,0.156" style="fill:none;stroke:#000;stroke-width:2.89px;"/><path d="M360.532,271.287c-0.111,-0.17 0.069,-0.102 0.201,-0.108" style="fill:none;stroke:#000;stroke-width:2.89px;"/><path d="M376.581,268.297c-0.108,-0.106 -0.031,-0.04 -0.324,-0.025" style="fill:none;stroke:#000;stroke-width:2.89px;"/><path d="M375.748,275.149c0.163,0.327 0.308,-0.011 0.298,-0.204" style="fill:none;stroke:#000;stroke-width:2.89px;"/><path d="M392.164,266.286c-0.012,0.042 -0.039,0.085 -0.052,0.128" style="fill:none;stroke:#000;stroke-width:2.89px;"/><path d="M419.595,260.448c0.405,0.176 0.273,0.182 0.664,-0.237" style="fill:none;stroke:#000;stroke-width:2.89px;"/><path d="M428.069,258.537c0.028,-0.018 0.057,-0.035 0.071,-0.052" style="fill:none;stroke:#000;stroke-width:2.89px;"/><path d="M465.973,568.654c0.046,0.028 0.022,0.15 0.025,0.205" style="fill:none;stroke:#000;stroke-width:2.89px;"/><path d="M462.801,572.242c-0.002,-0.048 0.005,0.097 0.007,0.145" style="fill:none;stroke:#000;stroke-width:2.89px;"/><path d="M450.679,577.636c-0.015,-0.013 -0.011,0.076 -0.016,-0.025" style="fill:none;stroke:#000;stroke-width:2.89px;"/><path d="M452.941,569.358c-0.016,-0.022 0.052,0.151 -0.11,0.159" style="fill:none;stroke:#000;stroke-width:2.89px;"/><path d="M457.354,577.659c-0.044,0.005 0.056,-0.06 0.054,-0.097" style="fill:none;stroke:#000;stroke-width:2.89px;"/><path d="M457.508,570.148c0.059,0 0.029,-0.008 0.034,0.095" style="fill:none;stroke:#000;stroke-width:2.89px;"/><path d="M473.596,566.185c0.014,-0.005 0.014,-0.01 0.014,-0.014" style="fill:none;stroke:#000;stroke-width:2.89px;"/><path d="M471.612,572.071c0.012,-0.052 0.204,-0.038 0.116,-0.034" style="fill:none;stroke:#000;stroke-width:2.89px;"/><path d="M482.417,566.814c-0.075,-0.039 -0.042,0.026 -0.04,0.073" style="fill:none;stroke:#000;stroke-width:2.89px;"/><path d="M479.983,572.226c0,-0.01 0.28,0.01 0.273,-0.133" style="fill:none;stroke:#000;stroke-width:2.89px;"/><path d="M477.593,567.934c-0.016,-0.023 -0.027,0.05 -0.031,-0.037" style="fill:none;stroke:#000;stroke-width:2.89px;"/><path d="M488.88,566.135c0.05,0.107 0.051,0.136 -0.081,0.142" style="fill:none;stroke:#000;stroke-width:2.89px;"/><path d="M487.398,571.19c-0.015,-0.011 -0.03,-0.02 -0.045,-0.029" style="fill:none;stroke:#000;stroke-width:2.89px;"/><path d="M471.016,576.34c0.041,-0.065 0.029,-0.023 0.023,-0.131" style="fill:none;stroke:#000;stroke-width:2.89px;"/><path d="M464.39,578.15c0.011,0.235 0.09,0.041 0.084,-0.074" style="fill:none;stroke:#000;stroke-width:2.89px;"/><path d="M475.08,573.538c-0.018,-0.082 0.203,0.232 0.199,0.15" style="fill:none;stroke:#000;stroke-width:2.89px;"/><path d="M474.79,569.782c-0.032,-0.052 0.009,0.177 0.009,0.178" style="fill:none;stroke:#000;stroke-width:2.89px;"/><path d="M467.076,572.778c-0.001,-0.009 0.013,-0.019 0.013,-0.028" style="fill:none;stroke:#000;stroke-width:2.89px;"/><path d="M502.8,562.008c0.084,0.222 0.093,0.405 -0.156,0.418" style="fill:none;stroke:#000;stroke-width:2.89px;"/><path d="M496.601,567.09c-0.134,-0.019 0.043,-0.016 0.102,-0.019" style="fill:none;stroke:#000;stroke-width:2.89px;"/><path d="M494.658,564.091c0.014,-0.001 0.029,0 0.029,0.002" style="fill:none;stroke:#000;stroke-width:2.89px;"/><path d="M492.301,572.531c0.032,0.053 0.031,0.315 0.034,0.374" style="fill:none;stroke:#000;stroke-width:2.89px;"/><path d="M498.717,562.378l0.012,0.243" style="fill:none;stroke:#000;stroke-width:2.89px;"/><path d="M501.483,568.599c-0.054,0.102 0.002,0.045 -0.203,0.056" style="fill:none;stroke:#000;stroke-width:2.89px;"/><path d="M507.968,562.777c-0.077,-0.076 0.123,0.115 0.114,-0.079" style="fill:none;stroke:#000;stroke-width:2.89px;"/><path d="M506.758,566.795c0.11,-0.152 0.426,0.298 0.408,-0.066" style="fill:none;stroke:#000;stroke-width:2.89px;"/><path d="M516.541,559.614c-0.05,-0.111 -0.012,0.047 -0.008,0.126" style="fill:none;stroke:#000;stroke-width:2.89px;"/><path d="M525.58,554.896c0.184,0.14 0.275,0.211 0.056,0.222" style="fill:none;stroke:#000;stroke-width:2.89px;"/><path d="M530.288,554.683c0.033,0.073 0.015,0.012 0.025,0.201" style="fill:none;stroke:#000;stroke-width:2.89px;"/><path d="M536.246,551.553c0.071,-0.06 0.168,0.127 -0.125,0.142" style="fill:none;stroke:#000;stroke-width:2.89px;"/><path d="M522.79,559.06c0.117,0.003 -0.044,0.007 -0.132,0.011" style="fill:none;stroke:#000;stroke-width:2.89px;"/><path d="M512.153,560.339c-0.119,-0.019 0.106,0.061 0.093,-0.204" style="fill:none;stroke:#000;stroke-width:2.89px;"/><path d="M513.645,564.321c-0.046,-0.05 0.113,-0.094 -0.063,-0.085" style="fill:none;stroke:#000;stroke-width:2.89px;"/><path d="M493.404,567.824c-0.064,-0.092 -0.003,-0.044 -0.208,-0.034" style="fill:none;stroke:#000;stroke-width:2.89px;"/><path d="M491.282,563.299c0.001,0.02 0.001,0.039 0.002,0.057" style="fill:none;stroke:#000;stroke-width:2.89px;"/><path d="M484.745,564.276c0.014,-0.017 0.028,-0.035 0.042,-0.052" style="fill:none;stroke:#000;stroke-width:2.89px;"/><path d="M484.778,569.932c-0.166,0.206 0.118,-0.278 -0.087,-0.268" style="fill:none;stroke:#000;stroke-width:2.89px;"/><path d="M484.147,574.956c0.145,-0.03 -0.425,0.315 -0.481,0.376" style="fill:none;stroke:#000;stroke-width:2.89px;"/><path d="M479.569,564.822c0.063,0.072 0.016,0.013 0.025,0.205" style="fill:none;stroke:#000;stroke-width:2.89px;"/><path d="M469.922,566.791c0.101,-0.035 0.058,-0.015 -0.147,-0.005" style="fill:none;stroke:#000;stroke-width:2.89px;"/><path d="M461.751,567.705c0.122,0.075 -0.321,0.04 -0.336,0.041" style="fill:none;stroke:#000;stroke-width:2.89px;"/><path d="M478.517,576.724c0,-0.015 -0.016,-0.032 -0.017,-0.047" style="fill:none;stroke:#000;stroke-width:2.89px;"/><path d="M459.732,581.431c-0.089,-0.012 0.145,0.551 0.126,0.163" style="fill:none;stroke:#000;stroke-width:2.89px;"/><path d="M461.455,575.613c-0.034,-0.094 0.064,0.1 -0.2,0.113" style="fill:none;stroke:#000;stroke-width:2.89px;"/><path d="M454.35,573.445c0.017,0.029 0.047,0.057 0.064,0.086" style="fill:none;stroke:#000;stroke-width:2.89px;"/><path d="M454.075,580.295c-0.09,-0.044 0.137,0.38 0.124,0.132" style="fill:none;stroke:#000;stroke-width:2.89px;"/><path d="M448.695,569.098c0.147,0.01 0.086,0.255 0.092,0.366" style="fill:none;stroke:#000;stroke-width:2.89px;"/><path d="M449.666,573.536c0.136,0.079 0.047,0.049 0.267,0.038" style="fill:none;stroke:#000;stroke-width:2.89px;"/><path d="M444.319,577.142l-0.001,-0.026" style="fill:none;stroke:#000;stroke-width:2.89px;"/><path d="M444.274,570.928c-0.029,0.011 -0.058,0.022 -0.087,0.034" style="fill:none;stroke:#000;stroke-width:2.89px;"/><path d="M448.607,581.172c0.036,0.135 0.013,-0.042 0.01,-0.103" style="fill:none;stroke:#000;stroke-width:2.89px;"/><path d="M440.348,582.974c-0.124,-0.134 -0.045,-0.011 -0.046,-0.041" style="fill:none;stroke:#000;stroke-width:2.89px;"/><path d="M440.874,571.717c-0.02,-0.104 -0.003,-0.061 0.006,0.135" style="fill:none;stroke:#000;stroke-width:2.89px;"/><path d="M438.9,577.532c0.001,0.013 0.016,0.023 0.017,0.035" style="fill:none;stroke:#000;stroke-width:2.89px;"/><path d="M446.001,582.261c0.045,0.015 0.314,0.412 -0.116,0.031" style="fill:none;stroke:#000;stroke-width:2.89px;"/><path d="M436.107,568.692c-0.045,-0.027 -0.11,0.143 -0.052,0.14" style="fill:none;stroke:#000;stroke-width:2.89px;"/><path d="M434.937,574.105c0.226,0.103 0.069,0.215 -0.106,0.224" style="fill:none;stroke:#000;stroke-width:2.89px;"/><path d="M430.581,578.114c-0.042,0.052 0.139,0.144 0.125,-0.137" style="fill:none;stroke:#000;stroke-width:2.89px;"/><path d="M432.002,571.253c0.113,-0.093 -0.125,0.16 -0.116,0.323" style="fill:none;stroke:#000;stroke-width:2.89px;"/><path d="M433.803,583.474c0.187,-0.378 0.491,-0.47 -0.316,-0.43" style="fill:none;stroke:#000;stroke-width:2.89px;"/><path d="M434.93,579.857c0.284,0.082 0.189,0.532 0.164,0.045" style="fill:none;stroke:#000;stroke-width:2.89px;"/><path d="M424.009,572.8c-0.055,0.06 -0.097,0.118 -0.152,0.177" style="fill:none;stroke:#000;stroke-width:2.89px;"/><path d="M425.198,568.642c-0.061,-0.048 -0.108,-0.097 -0.154,-0.146" style="fill:none;stroke:#000;stroke-width:2.89px;"/><path d="M423.424,580.801c0.237,0.035 -0.072,0.028 -0.219,0.035" style="fill:none;stroke:#000;stroke-width:2.89px;"/><path d="M427.367,574.107c0.03,0.017 0.046,0.035 0.062,0.053" style="fill:none;stroke:#000;stroke-width:2.89px;"/><path d="M429.133,584.161c-0.225,0.203 -0.176,-0.587 -0.191,-0.89" style="fill:none;stroke:#000;stroke-width:2.89px;"/><path d="M426.455,579.969c-0.117,0.025 0.248,-0.329 0.541,-0.344" style="fill:none;stroke:#000;stroke-width:2.89px;"/><path d="M420.452,573.375c-0.137,0.214 -0.024,0.114 -0.42,0.134" style="fill:none;stroke:#000;stroke-width:2.89px;"/><path d="M412.346,584.73c0.283,0.071 0.157,-0.104 0.147,-0.297" style="fill:none;stroke:#000;stroke-width:2.89px;"/><path d="M421.396,586.986c0.005,0.093 -0.009,-0.183 -0.014,-0.276" style="fill:none;stroke:#000;stroke-width:2.89px;"/><path d="M418.961,577.959c-0.232,0.066 -0.092,0.522 -0.082,0.711" style="fill:none;stroke:#000;stroke-width:2.89px;"/><path d="M415.467,585.708c-0.196,-0.114 0.085,-0.067 0.246,-0.075" style="fill:none;stroke:#000;stroke-width:2.89px;"/><path d="M426.254,586.248c0.032,-0.234 0.067,-0.123 -0.329,-0.104" style="fill:none;stroke:#000;stroke-width:2.89px;"/><path d="M423.188,577.834c-0.255,-0.094 -0.137,-0.099 -0.118,0.286" style="fill:none;stroke:#000;stroke-width:2.89px;"/><path d="M420.202,583.387c-0.558,-0.291 -0.937,0.367 -1.421,0.392" style="fill:none;stroke:#000;stroke-width:2.89px;"/><path d="M414.704,574.258c0.109,-0.175 -0.072,0.031 -0.256,-0.13" style="fill:none;stroke:#000;stroke-width:2.89px;"/><path d="M417.575,569.923c0.044,0.012 0.037,0.165 0.033,0.088" style="fill:none;stroke:#000;stroke-width:2.89px;"/><path d="M414.132,579.282c0.015,0.002 0.015,0.005 0.015,0.009" style="fill:none;stroke:#000;stroke-width:2.89px;"/><path d="M407.745,570.886l0.006,0.115" style="fill:none;stroke:#000;stroke-width:2.89px;"/><path d="M403.248,579.431c-0.015,-0.002 0.059,0.013 0.054,-0.095" style="fill:none;stroke:#000;stroke-width:2.89px;"/><path d="M400.975,573.647c-0.085,0.066 -0.089,-0.001 -0.084,0.097" style="fill:none;stroke:#000;stroke-width:2.89px;"/><path d="M392.314,571.537c-0.004,-0.089 -0.101,-0.258 -0.013,-0.262" style="fill:none;stroke:#000;stroke-width:2.89px;"/><path d="M389.03,577.871c0.031,0.043 0.025,0.208 0.016,0.024" style="fill:none;stroke:#000;stroke-width:2.89px;"/><path d="M395.323,579.676c-0.061,-0.039 -0.029,0.021 -0.027,0.059" style="fill:none;stroke:#000;stroke-width:2.89px;"/><path d="M391.138,586.528c-0.056,0.06 -0.029,0.022 -0.024,0.123" style="fill:none;stroke:#000;stroke-width:2.89px;"/><path d="M407.612,576.167c-0.046,-0.034 0.04,0.22 -0.106,0.227" style="fill:none;stroke:#000;stroke-width:2.89px;"/><path d="M406.813,586.073c-0.032,-0.059 -0.043,0.024 -0.104,-0.036" style="fill:none;stroke:#000;stroke-width:2.89px;"/><path d="M399.137,586.588c0.011,-0.065 -0.009,-0.187 -0.013,-0.255" style="fill:none;stroke:#000;stroke-width:2.89px;"/><path d="M408.722,580.145c-0.001,-0.012 0.008,0.159 0.008,0.162" style="fill:none;stroke:#000;stroke-width:2.89px;"/><path d="M397.607,570.678c0.132,-0.004 0.048,0.082 0.136,0.077" style="fill:none;stroke:#000;stroke-width:2.89px;"/><path d="M402.526,583.224c0.057,-0.036 0.023,-0.122 0.02,-0.179" style="fill:none;stroke:#000;stroke-width:2.89px;"/><path d="M411.865,571.553c-0.014,0.017 -0.11,-0.137 -0.198,-0.132" style="fill:none;stroke:#000;stroke-width:2.89px;"/><path d="M398.243,576.052c-0.031,-0.027 0.056,-0.068 0.062,0.052" style="fill:none;stroke:#000;stroke-width:2.89px;"/><path d="M392.692,575.266c0.043,-0.019 0.014,-0.012 0.018,0.073" style="fill:none;stroke:#000;stroke-width:2.89px;"/><path d="M390.27,582.686c-0.028,0.027 -0.015,0.008 0.073,0.004" style="fill:none;stroke:#000;stroke-width:2.89px;"/><path d="M395.503,584.47c-0.007,0.151 -0.008,0.132 -0.169,0.141" style="fill:none;stroke:#000;stroke-width:2.89px;"/><path d="M381.252,585.489c0.086,-0.044 0.12,0.033 0.113,-0.101" style="fill:none;stroke:#000;stroke-width:2.89px;"/><path d="M379.102,589.522c-0.044,-0.004 -0.015,-0.002 -0.103,0.002" style="fill:none;stroke:#000;stroke-width:2.89px;"/><path d="M386.545,588.748c0.044,-0.005 0.14,0.158 -0.044,0" style="fill:none;stroke:#000;stroke-width:2.89px;"/><path d="M384.176,575.746c0.077,0.08 0.053,0.178 -0.05,0.183" style="fill:none;stroke:#000;stroke-width:2.89px;"/><path d="M388.085,571.015c0.027,-0.042 0.099,-0.063 0.097,-0.11" style="fill:none;stroke:#000;stroke-width:2.89px;"/><path d="M385.486,582.553c0.1,-0.056 0.053,-0.105 -0.049,-0.1" style="fill:none;stroke:#000;stroke-width:2.89px;"/><path d="M378.813,576.971c-0.056,0.06 -0.022,0.155 -0.028,0.028" style="fill:none;stroke:#000;stroke-width:2.89px;"/><path d="M381.767,571.076c0.072,-0.025 0.053,0.167 0.056,0.228" style="fill:none;stroke:#000;stroke-width:2.89px;"/><path d="M381.051,579.985c-0.084,0.083 0.035,0.114 -0.112,0.121" style="fill:none;stroke:#000;stroke-width:2.89px;"/><path d="M372.921,584.361c0.044,0.006 0.052,0.161 -0.051,0.166" style="fill:none;stroke:#000;stroke-width:2.89px;"/><path d="M368.877,591.098c-0.002,-0.034 -0.004,-0.069 -0.005,-0.104" style="fill:none;stroke:#000;stroke-width:2.89px;"/><path d="M374.037,588.18c-0.003,-0.074 -0.027,0.042 -0.08,0.15" style="fill:none;stroke:#000;stroke-width:2.89px;"/><path d="M370.393,588.788c0.055,-0.071 -0.029,0.016 -0.057,0.045" style="fill:none;stroke:#000;stroke-width:2.89px;"/><path d="M376.409,581.229c0.071,-0.055 -0.151,-0.085 -0.239,-0.081" style="fill:none;stroke:#000;stroke-width:2.89px;"/><path d="M372.653,577.246c0,-0.002 -0.139,0.159 -0.151,-0.094" style="fill:none;stroke:#000;stroke-width:2.89px;"/><path d="M376.28,571.873c0.001,0.01 0.001,0.018 0.016,0.028" style="fill:none;stroke:#000;stroke-width:2.89px;"/><path d="M372.244,569.645c-0.076,-0.056 -0.073,-0.002 -0.115,0.053" style="fill:none;stroke:#000;stroke-width:2.89px;"/><path d="M367.634,575.337c0.099,-0.078 -0.131,0.32 -0.187,0.381" style="fill:none;stroke:#000;stroke-width:2.89px;"/><path d="M363.993,582.201c-0.069,0.084 -0.052,0.121 0.05,0.115" style="fill:none;stroke:#000;stroke-width:2.89px;"/><path d="M368.635,580.375c0.106,0.06 -0.087,0.028 -0.116,0.03" style="fill:none;stroke:#000;stroke-width:2.89px;"/><path d="M367.186,584.915c-0.046,-0.039 -0.028,0.021 -0.026,0.058" style="fill:none;stroke:#000;stroke-width:2.89px;"/><path d="M364.341,589.165c-0.046,-0.036 -0.112,0.105 -0.119,-0.027" style="fill:none;stroke:#000;stroke-width:2.89px;"/><path d="M359.663,588.206c-0.084,0.08 -0.133,-0.021 -0.126,0.12" style="fill:none;stroke:#000;stroke-width:2.89px;"/><path d="M360.465,575.715c0.081,0.141 -0.46,0.209 -0.468,0.053" style="fill:none;stroke:#000;stroke-width:2.89px;"/><path d="M365.581,571.014c-0.031,-0.023 0.002,0.055 -0.1,0.06" style="fill:none;stroke:#000;stroke-width:2.89px;"/><path d="M358.124,582.993c-0.012,0.047 0.001,0.021 -0.087,0.025" style="fill:none;stroke:#000;stroke-width:2.89px;"/><path d="M356.856,571.438c0.06,0.029 -0.116,0.025 -0.175,0.027" style="fill:none;stroke:#000;stroke-width:2.89px;"/><path d="M352.382,577.213l-0.015,0" style="fill:none;stroke:#000;stroke-width:2.89px;"/><path d="M346.286,571.41c0.054,-0.098 0.222,0.032 0.212,-0.168" style="fill:none;stroke:#000;stroke-width:2.89px;"/><path d="M348.623,583.766c0.066,0.147 -0.062,-0.361 -0.212,-0.424" style="fill:none;stroke:#000;stroke-width:2.89px;"/><path d="M345.74,576.363c-0.047,-0.049 0.068,0.178 -0.079,0.185" style="fill:none;stroke:#000;stroke-width:2.89px;"/><path d="M352.177,572.219c0.048,0.08 0.039,0.203 -0.049,0.208" style="fill:none;stroke:#000;stroke-width:2.89px;"/><path d="M352.852,585.743c0.04,-0.096 0.448,-0.446 -0.006,-0.424" style="fill:none;stroke:#000;stroke-width:2.89px;"/><path d="M357.45,577.737c0.015,0.012 -0.09,-0.041 -0.252,-0.033" style="fill:none;stroke:#000;stroke-width:2.89px;"/><path d="M340.329,586.325c-0.014,0.02 -0.108,0.498 0.051,0.151" style="fill:none;stroke:#000;stroke-width:2.89px;"/><path d="M338.826,575.076c0.045,0.019 -0.157,0.089 -0.245,0.093" style="fill:none;stroke:#000;stroke-width:2.89px;"/><path d="M336.201,571.668c0.005,0.095 -0.177,-0.019 -0.207,-0.036" style="fill:none;stroke:#000;stroke-width:2.89px;"/><path d="M330.169,580.381c0.016,0.025 0.015,0.006 -0.058,0.01" style="fill:none;stroke:#000;stroke-width:2.89px;"/><path d="M328.799,587.395c0.028,-0.026 -0.176,0 -0.132,-0.002" style="fill:none;stroke:#000;stroke-width:2.89px;"/><path d="M336.547,580.352c0.057,-0.036 0.194,-0.225 0.018,-0.217" style="fill:none;stroke:#000;stroke-width:2.89px;"/><path d="M334.054,586.355c-0.002,-0.034 0.003,0.068 0.005,0.103" style="fill:none;stroke:#000;stroke-width:2.89px;"/><path d="M346.183,587.878c-0.032,-0.037 -0.101,0.046 -0.159,0.049" style="fill:none;stroke:#000;stroke-width:2.89px;"/><path d="M343.393,582.048c0.016,0.028 0,0.012 -0.073,0.015" style="fill:none;stroke:#000;stroke-width:2.89px;"/><path d="M332.92,576.311c-0.066,0.147 -0.037,0.137 -0.243,0.147" style="fill:none;stroke:#000;stroke-width:2.89px;"/><path d="M328.822,572.543c-0.027,0.049 0.1,-0.047 0.159,-0.05" style="fill:none;stroke:#000;stroke-width:2.89px;"/><path d="M322.908,570.381c-0.015,-0.013 0.295,-0.268 0.031,-0.255" style="fill:none;stroke:#000;stroke-width:2.89px;"/><path d="M324.982,574.243c-0.047,-0.072 -0.05,0.169 -0.12,0.234" style="fill:none;stroke:#000;stroke-width:2.89px;"/><path d="M326.065,580.315c0.01,-0.079 0.236,0.02 0.074,0.028" style="fill:none;stroke:#000;stroke-width:2.89px;"/><path d="M320.168,584.387c-0.031,-0.022 -0.015,-0.012 -0.012,0.05" style="fill:none;stroke:#000;stroke-width:2.89px;"/><path d="M321.303,578.276c0.044,-0.009 0.014,-0.012 0.018,0.055" style="fill:none;stroke:#000;stroke-width:2.89px;"/><path d="M316.163,573.066c0.093,0.102 -0.275,0.081 -0.422,0.088" style="fill:none;stroke:#000;stroke-width:2.89px;"/><path d="M324.582,584.173c-0.046,-0.024 0.028,-0.025 0.025,-0.076" style="fill:none;stroke:#000;stroke-width:2.89px;"/><path d="M312.811,579.822c0.044,0 0.029,-0.008 0.032,0.059" style="fill:none;stroke:#000;stroke-width:2.89px;"/><path d="M308.655,586.365c-0.015,0.009 0.132,-0.293 -0.029,-0.285" style="fill:none;stroke:#000;stroke-width:2.89px;"/><path d="M316.621,578.712c0.027,-0.047 0.016,0.009 0.017,0.031" style="fill:none;stroke:#000;stroke-width:2.89px;"/><path d="M315.706,585.692c-0.018,-0.063 -0.051,0.157 -0.124,0.16" style="fill:none;stroke:#000;stroke-width:2.89px;"/><path d="M309.066,576.358c-0.032,-0.058 -0.275,0.091 -0.382,-0.006" style="fill:none;stroke:#000;stroke-width:2.89px;"/><path d="M309.116,570.879c-0.03,-0.001 0.227,0.128 0.22,-0.015" style="fill:none;stroke:#000;stroke-width:2.89px;"/><path d="M314.543,570.052l0.006,0.137" style="fill:none;stroke:#000;stroke-width:2.89px;"/><path d="M301.113,573.386c0.031,0.035 -0.014,0.025 -0.043,0.026" style="fill:none;stroke:#000;stroke-width:2.89px;"/><path d="M297.188,579.275c0.047,0.051 0.028,-0.028 0.075,0.019" style="fill:none;stroke:#000;stroke-width:2.89px;"/><path d="M302.415,577.091c0.067,-0.123 -0.328,-0.091 -0.426,0.011" style="fill:none;stroke:#000;stroke-width:2.89px;"/><path d="M308.922,582.01c-0.027,0.036 0.047,0.048 0.042,-0.037" style="fill:none;stroke:#000;stroke-width:2.89px;"/><path d="M303.561,584.155c0.042,-0.052 -0.124,0.155 -0.17,0.112" style="fill:none;stroke:#000;stroke-width:2.89px;"/><path d="M298.181,586.78c0.058,0 -0.174,0.064 -0.176,0.009" style="fill:none;stroke:#000;stroke-width:2.89px;"/><path d="M304.423,572.568c0.092,0.067 -0.023,0.118 -0.019,0.203" style="fill:none;stroke:#000;stroke-width:2.89px;"/><path d="M297.343,570.314c-0.03,-0.015 -0.015,-0.006 0.059,-0.01" style="fill:none;stroke:#000;stroke-width:2.89px;"/><path d="M297.698,573.874c0,0.002 0.014,0.002 0.014,0.004" style="fill:none;stroke:#000;stroke-width:2.89px;"/><path d="M290.527,576.87c0.001,0.025 -0.175,0.018 -0.205,0.02" style="fill:none;stroke:#000;stroke-width:2.89px;"/><path d="M286.443,584.26c-0.044,0.012 0.054,-0.088 0.052,-0.135" style="fill:none;stroke:#000;stroke-width:2.89px;"/><path d="M292.596,582.688c-0.06,-0.034 -0.113,0.075 -0.17,0.125" style="fill:none;stroke:#000;stroke-width:2.89px;"/><path d="M293.432,586.476c0.09,0.035 -0.102,0.018 -0.116,0.018" style="fill:none;stroke:#000;stroke-width:2.89px;"/><path d="M292.29,572.735c-0.03,-0.027 -0.015,-0.008 -0.073,-0.005" style="fill:none;stroke:#000;stroke-width:2.89px;"/><path d="M288.311,568.997c0.132,-0.013 0.1,-0.073 -0.062,-0.065" style="fill:none;stroke:#000;stroke-width:2.89px;"/><path d="M285.891,572.626c0.03,0.016 -0.044,-0.001 -0.047,-0.052" style="fill:none;stroke:#000;stroke-width:2.89px;"/><path d="M282.246,577.922c0.041,-0.051 0.023,0.182 -0.035,0.185" style="fill:none;stroke:#000;stroke-width:2.89px;"/><path d="M278.364,583.2c-0.015,-0.009 -0.028,0.027 -0.027,0.046" style="fill:none;stroke:#000;stroke-width:2.89px;"/><path d="M278.377,569.036c0.097,-0.11 0.174,0.241 0.181,0.38" style="fill:none;stroke:#000;stroke-width:2.89px;"/><path d="M279.561,574.197c0.012,-0.05 -0.104,-0.017 -0.133,-0.016" style="fill:none;stroke:#000;stroke-width:2.89px;"/><path d="M273.118,576.448c-0.026,0.069 -0.275,0.087 -0.342,0.234" style="fill:none;stroke:#000;stroke-width:2.89px;"/><path d="M270.036,583.625c-0.002,-0.057 0.094,0.098 0.152,0.095" style="fill:none;stroke:#000;stroke-width:2.89px;"/><path d="M275.499,586.464c-0.002,-0.051 -0.001,-0.029 -0.075,-0.025" style="fill:none;stroke:#000;stroke-width:2.89px;"/><path d="M268.943,570.862c0.058,-0.027 -0.11,0.14 -0.152,0.193" style="fill:none;stroke:#000;stroke-width:2.89px;"/><path d="M272.9,569.157c-0.102,0.002 -0.079,0.181 -0.074,0.275" style="fill:none;stroke:#000;stroke-width:2.89px;"/><path d="M264.343,577.335c0.01,-0.09 0.037,-0.133 -0.075,-0.024" style="fill:none;stroke:#000;stroke-width:2.89px;"/><path d="M261.45,583.274l-0.015,0.003" style="fill:none;stroke:#000;stroke-width:2.89px;"/><path d="M267.694,578.801c0.033,0.072 0.034,0.098 -0.054,0.102" style="fill:none;stroke:#000;stroke-width:2.89px;"/><path d="M263.673,586.597c0.062,0.06 -0.162,-0.007 -0.193,-0.036" style="fill:none;stroke:#000;stroke-width:2.89px;"/><path d="M286.992,579.36c0.179,0.058 0.309,0.017 0.14,-0.122" style="fill:none;stroke:#000;stroke-width:2.89px;"/><path d="M261.919,569.419c-0.056,0.051 0.097,-0.107 0.094,-0.174" style="fill:none;stroke:#000;stroke-width:2.89px;"/><path d="M258.129,574.183c0.001,0.006 0.203,-0.068 -0.003,-0.058" style="fill:none;stroke:#000;stroke-width:2.89px;"/><path d="M251.455,570.332c-0.029,0.005 0.097,-0.117 0.093,-0.188" style="fill:none;stroke:#000;stroke-width:2.89px;"/><path d="M250.985,579.771c0.016,0.027 -0.073,0.009 -0.116,0.028" style="fill:none;stroke:#000;stroke-width:2.89px;"/><path d="M256.409,580.657c-0.03,-0.017 0,-0.01 -0.073,-0.007" style="fill:none;stroke:#000;stroke-width:2.89px;"/><path d="M256.883,569.24c0.074,0.021 0.054,0.197 0.057,0.258" style="fill:none;stroke:#000;stroke-width:2.89px;"/><path d="M251.076,575.696c-0.078,-0.092 0.303,-0.112 0.297,-0.233" style="fill:none;stroke:#000;stroke-width:2.89px;"/><path d="M254.181,584.606c0.046,0.041 -0.049,-0.106 -0.11,-0.157" style="fill:none;stroke:#000;stroke-width:2.89px;"/><path d="M243.827,584.47c-0.017,-0.041 -0.099,0.091 -0.13,0.06" style="fill:none;stroke:#000;stroke-width:2.89px;"/><path d="M245.392,572.851c-0.062,-0.066 -0.024,-0.183 -0.028,-0.274" style="fill:none;stroke:#000;stroke-width:2.89px;"/><path d="M245.926,578.821c0,0.008 0.145,-0.042 0.005,0.108" style="fill:none;stroke:#000;stroke-width:2.89px;"/><path d="M238.824,577.016c-0.032,-0.056 0.064,0.106 0.096,0.16" style="fill:none;stroke:#000;stroke-width:2.89px;"/><path d="M244.603,567.936c0.002,0.046 0.005,0.091 0.007,0.136" style="fill:none;stroke:#000;stroke-width:2.89px;"/><path d="M238.344,566.808c0.015,0.015 0.135,0.049 0.017,0.055" style="fill:none;stroke:#000;stroke-width:2.89px;"/><path d="M240.196,572.116c-0.017,-0.059 -0.13,0.033 -0.189,0.036" style="fill:none;stroke:#000;stroke-width:2.89px;"/><path d="M233.11,573.259c0.088,-0.01 0.019,0.087 0.122,0.082" style="fill:none;stroke:#000;stroke-width:2.89px;"/><path d="M232.427,566.357c-0.003,-0.065 -0.113,0.091 -0.186,0.095" style="fill:none;stroke:#000;stroke-width:2.89px;"/><path d="M231.416,579.082c-0.03,-0.014 -0.032,-0.065 -0.078,-0.095" style="fill:none;stroke:#000;stroke-width:2.89px;"/><path d="M227.429,569.287c0.029,0.005 0.025,0.207 0.028,0.269" style="fill:none;stroke:#000;stroke-width:2.89px;"/><path d="M237.105,582.326c0.016,0.029 0.118,0.011 0.06,0.014" style="fill:none;stroke:#fff;stroke-width:2.89px;"/><path d="M236.879,583.687c0,0.001 0.015,0 0.015,0.002" style="fill:none;stroke:#000;stroke-width:2.89px;"/><path d="M223.634,580.125c0.13,-0.046 0.055,0.218 -0.282,0.235" style="fill:none;stroke:#000;stroke-width:2.89px;"/><path d="M222.901,572.511c0.052,-0.128 0.024,0.187 0.027,0.25" style="fill:none;stroke:#000;stroke-width:2.89px;"/><path d="M217.725,566.885c0.015,0.009 -0.012,0.345 -0.009,0.408" style="fill:none;stroke:#000;stroke-width:2.89px;"/><path d="M210.433,570.099c0.03,0.007 -0.103,0.288 -0.191,0.293" style="fill:none;stroke:#000;stroke-width:2.89px;"/><path d="M210.571,578.747c0.062,0.057 -0.042,0.029 -0.086,0.032" style="fill:none;stroke:#000;stroke-width:2.89px;"/><path d="M216.74,576.595c0,-0.015 0.005,0.094 -0.051,0.15" style="fill:none;stroke:#000;stroke-width:2.89px;"/><path d="M206.425,564.59c0.014,-0.011 -0.007,0.152 -0.081,0.156" style="fill:none;stroke:#000;stroke-width:2.89px;"/><path d="M203.538,571.822c0,0.013 -0.164,-0.032 -0.296,-0.025" style="fill:none;stroke:#000;stroke-width:2.89px;"/><path d="M198.667,576.415c0.089,0.033 0.066,0.159 -0.036,0.165" style="fill:none;stroke:#000;stroke-width:2.89px;"/><path d="M196.842,564.597c-0.091,-0.044 -0.019,0.212 -0.111,0.136" style="fill:none;stroke:#000;stroke-width:2.89px;"/><path d="M188.307,567.652c0.014,-0.027 -0.079,-0.404 -0.225,-0.397" style="fill:none;stroke:#000;stroke-width:2.89px;"/><path d="M185.438,575.831c-0.031,-0.034 -0.005,-0.107 -0.008,-0.159" style="fill:none;stroke:#000;stroke-width:2.89px;"/><path d="M180.808,565.239c0.085,-0.059 -0.296,-0.035 -0.301,-0.143" style="fill:none;stroke:#000;stroke-width:2.89px;"/><path d="M175.178,570.247c-0.061,-0.057 -0.155,0.124 -0.258,0.129" style="fill:none;stroke:#000;stroke-width:2.89px;"/><path d="M170.958,574.33c0.012,-0.049 0.001,0.018 0.003,0.05" style="fill:none;stroke:#000;stroke-width:2.89px;"/><path d="M163.743,562.89c0.17,-0.117 -0.122,0.512 -0.341,0.523" style="fill:none;stroke:#000;stroke-width:2.89px;"/><path d="M171.234,561.322c0.02,-0.202 -0.404,0.153 -0.609,0.163" style="fill:none;stroke:#000;stroke-width:2.89px;"/><path d="M167.362,567.948c-0.108,-0.085 0.21,0.088 0.203,-0.041" style="fill:none;stroke:#000;stroke-width:2.89px;"/><path d="M181.671,570.753c0.183,0.138 -0.115,0.336 -0.247,0.343" style="fill:none;stroke:#000;stroke-width:2.89px;"/><path d="M177.825,575.272c0.139,0.12 0.139,0.123 0.258,-0.13" style="fill:none;stroke:#000;stroke-width:2.89px;"/><path d="M193.209,572.793c0.007,0.153 0.221,0.315 0.089,0.321" style="fill:none;stroke:#000;stroke-width:2.89px;"/><path d="M198.786,567.919c0.146,-0.026 0.104,0.025 0.11,0.14" style="fill:none;stroke:#000;stroke-width:2.89px;"/><path d="M189.356,562.747c-0.046,-0.034 0.114,-0.06 0.112,-0.113" style="fill:none;stroke:#000;stroke-width:2.89px;"/><path d="M191.407,577.331c0.099,-0.068 0.284,0.393 0.278,0.267" style="fill:none;stroke:#000;stroke-width:2.89px;"/><path d="M206.073,576.39c0.014,-0.033 0.226,-0.493 -0.009,-0.481" style="fill:none;stroke:#000;stroke-width:2.89px;"/><path d="M158.58,558.411c0.064,0.098 0.018,0.056 0.194,0.047" style="fill:none;stroke:#000;stroke-width:2.89px;"/><path d="M154.008,566.049c-0.024,0.094 0.049,-0.204 0.042,-0.339" style="fill:none;stroke:#000;stroke-width:2.89px;"/><path d="M164.223,572.211c-0.016,-0.022 -0.046,-0.044 -0.077,-0.066" style="fill:none;stroke:#000;stroke-width:2.89px;"/><path d="M159.259,569.355c-0.015,-0.021 0.061,0.046 -0.012,0.05" style="fill:none;stroke:#000;stroke-width:2.89px;"/><path d="M154.54,572.873c0.151,-0.21 0.236,-0.282 0.222,-0.558" style="fill:none;stroke:#000;stroke-width:2.89px;"/><path d="M157.838,561.797c0.072,-0.032 0.202,0.205 0.04,0.214" style="fill:none;stroke:#000;stroke-width:2.89px;"/><path d="M145.731,556.006c-0.001,-0.018 0.073,-0.019 0.057,-0.034" style="fill:none;stroke:#000;stroke-width:2.89px;"/><path d="M142.436,564.779c0.076,0.046 -0.117,0.023 -0.131,0.024" style="fill:none;stroke:#000;stroke-width:2.89px;"/><path d="M139.099,569.481c-0.027,0.061 0.13,-0.034 0.126,-0.122" style="fill:none;stroke:#000;stroke-width:2.89px;"/><path d="M151.562,559.156c0.017,0.043 0.003,0.064 0.002,0.035" style="fill:none;stroke:#000;stroke-width:2.89px;"/><path d="M148.076,567.048c-0.117,0.017 0.011,0.227 0.129,0.222" style="fill:none;stroke:#000;stroke-width:2.89px;"/><path d="M146.77,562.389c0.107,0.071 0.115,-0.053 0.023,-0.124" style="fill:none;stroke:#000;stroke-width:2.89px;"/><path d="M138.895,558.622c0.045,0.017 0.136,0.075 0.033,0.081" style="fill:none;stroke:#000;stroke-width:2.89px;"/><path d="M133.963,563.176c0.076,0.065 -0.087,0.033 -0.131,0.036" style="fill:none;stroke:#000;stroke-width:2.89px;"/><path d="M132.519,555.462c0.013,-0.046 0.001,0.02 0.003,0.054" style="fill:none;stroke:#000;stroke-width:2.89px;"/><path d="M126.049,554.52c-0.03,-0.013 -0.042,0.042 -0.045,-0.022" style="fill:none;stroke:#000;stroke-width:2.89px;"/><path d="M125.999,560.591c0.075,0.325 -0.212,0.157 -0.222,-0.038" style="fill:none;stroke:#000;stroke-width:2.89px;"/><path d="M130.204,559.134c0.147,0.013 0.077,0.374 -0.099,0.383" style="fill:none;stroke:#000;stroke-width:2.89px;"/><path d="M119.328,553.571c0.163,-0.264 -0.162,-0.3 -0.312,-0.367" style="fill:none;stroke:#000;stroke-width:2.89px;"/><path d="M112.934,554.739c0.008,-0.137 0.02,0.411 0.02,0.411c0,0 -0.176,-0.29 -0.257,-0.435" style="fill:none;stroke:#000;stroke-width:2.89px;"/><path d="M114.159,559.549c0.109,0.127 0.039,-0.386 -0.084,-0.5" style="fill:none;stroke:#000;stroke-width:2.89px;"/><path d="M119.782,558.538c-0.088,0.01 -0.006,0.169 -0.114,0.082" style="fill:none;stroke:#000;stroke-width:2.89px;"/><path d="M112.747,548.95c-0.128,0.08 -0.267,-0.063 -0.281,-0.343" style="fill:none;stroke:#000;stroke-width:2.89px;"/><path d="M107.317,550.879c0.059,-0.003 -0.039,0.099 -0.037,0.152" style="fill:none;stroke:#000;stroke-width:2.89px;"/><path d="M103.735,553.904c-0.016,-0.014 0.008,0.177 0.01,0.213" style="fill:none;stroke:#000;stroke-width:2.89px;"/><path d="M99.197,547.521c0.001,0.014 -0.111,-0.176 -0.116,-0.261" style="fill:none;stroke:#000;stroke-width:2.89px;"/><path d="M96.222,550.049c0,-0.002 0.027,0.243 -0.056,0.341" style="fill:none;stroke:#000;stroke-width:2.89px;"/><path d="M92.553,545.45c-0.047,-0.054 -0.157,0.387 -0.17,0.13" style="fill:none;stroke:#000;stroke-width:2.89px;"/><path d="M87.279,545.219c0.002,0.03 0.693,-0.837 0.429,-0.823" style="fill:none;stroke:#000;stroke-width:2.89px;"/><path d="M83.877,541.851c0.01,-0.091 -0.243,-0.163 -0.39,-0.155" style="fill:none;stroke:#000;stroke-width:2.89px;"/><path d="M80.066,542.07c-0.041,0.044 -0.13,0.027 -0.174,0.029" style="fill:none;stroke:#000;stroke-width:2.89px;"/><path d="M76.731,538.859c-0.016,-0.035 0.05,0.113 -0.082,0.119" style="fill:none;stroke:#000;stroke-width:2.89px;"/><path d="M66.983,537.039c0.121,-0.237 -0.345,0.444 -0.574,0.576" style="fill:none;stroke:#000;stroke-width:2.89px;"/></svg>