<?xml version="1.0" encoding="UTF-8" standalone="no"?><!DOCTYPE svg PUBLIC "-//W3C//DTD SVG 1.1//EN" "http://www.w3.org/Graphics/SVG/1.1/DTD/svg11.dtd"><svg width="100%" height="100%" viewBox="0 0 600 600" version="1.1" xmlns="http://www.w3.org/2000/svg" xmlns:xlink="http://www.w3.org/1999/xlink" xml:space="preserve" xmlns:serif="http://www.serif.com/" style="fill-rule:evenodd;clip-rule:evenodd;stroke-linecap:round;stroke-linejoin:round;stroke-miterlimit:1.5;"><path d="M320.84,143.268c31.724,1.333 96.108,11.323 144.813,32.466c59.35,25.758 87.321,53.213 61.269,103.415c-40.866,78.734 -219.392,80.302 -333.345,61.478c-75.349,-12.448 -140.135,-63.347 -136.654,-116.084c1.67,-25.174 14.471,-45.467 40.097,-61.312c39.433,-24.378 113.005,-28.465 172.995,-23.831" style="fill:none;stroke:#000;stroke-width:2.61px;"/><path d="M519.247,331.964c-5.296,18.789 -24.224,144.424 -93.707,166.274c-42.175,13.263 -253.344,19.15 -302.452,-29.602c-33.452,-33.214 -56.935,-88.856 -58.689,-145.136" style="fill:none;stroke:#000;stroke-width:2.6px;"/><path d="M519.26,331.808c-0.639,1.296 13.109,-13.185 26.727,-22.847c12.173,-8.63 39.504,-5.836 48.184,-23.782c14.909,-30.835 -32.683,-48.984 -59.292,-56.134" style="fill:none;stroke:#000;stroke-width:2.61px;"/><path d="M64.514,323.648c-0.379,-7.79 -11.025,-28.834 -40.001,-51.428c-19.966,-15.56 -28.207,-37.45 -18.343,-53.104c6.986,-11.08 23.233,-22.236 54.389,-16.432" style="fill:none;stroke:#000;stroke-width:2.61px;"/><path d="M268.346,189.599c11.522,10.192 41.777,8.105 54.756,-0.061c9.296,-5.847 -9.308,-30.895 -3.861,-43.902c3.719,-8.887 18.533,-30.678 5.803,-38.894c-16.484,-10.63 -36.236,-8.783 -50.908,-3.558c-15.358,5.461 -8.727,20.394 -0.912,43.329c3.517,10.352 -13.475,35.486 -4.878,43.086Z" style="fill:none;stroke:#000;stroke-width:2.61px;"/><path d="M272.928,152.72c-12.611,-1.076 -29.841,0.093 -45.732,1.816c-43.945,4.761 -49.807,54.475 -5.246,64.158c39.752,8.64 98.109,10.475 133.882,8.563c44.667,-2.39 73.49,-59.895 -36.65,-73.052" style="fill:none;stroke:#000;stroke-width:2.61px;"/><path d="M244.26,250.928c54.436,5.356 111.655,6.654 139.578,-1.205c25.981,-7.314 48.989,-33.221 34.199,-58.789" style="fill:none;stroke:#000;stroke-width:2.61px;"/><path d="M90.109,248.362c32.875,57.044 79.813,59.607 117.258,66.179c91.566,16.073 266.391,20.295 296.551,-50.782" style="fill:none;stroke:#000;stroke-width:2.62px;"/><path d="M329.923,117.874c-5.448,11.319 -14.246,11.684 -22.393,11.786" style="fill:none;stroke:#000;stroke-width:2.61px;"/><path d="M265.089,118.328c4.382,10.871 15.146,11.007 21.943,10.939" style="fill:none;stroke:#000;stroke-width:2.61px;"/><path d="M521.178,301.42c6.596,-7.562 13.547,-13.551 25.958,-17.623c15.714,-5.158 28.384,0.616 29.663,-11.711c1.267,-12.253 -25.661,-21.837 -39.646,-22.329" style="fill:none;stroke:#000;stroke-width:2.61px;"/><path d="M521.356,301.079c0.403,-1.418 3.351,-15.596 3.849,-18.563" style="fill:none;stroke:#000;stroke-width:2.61px;"/><path d="M55.846,222.858c-6.537,-0.868 -20.936,-5.346 -30.848,1.28c-9.485,6.333 -3.742,19.72 9.627,27.581c13.725,8.07 14.009,14.795 29.463,34.298" style="fill:none;stroke:#000;stroke-width:2.61px;"/><path d="M64.538,285.844c0.023,0.013 0.047,0.025 0.083,0.036" style="fill:none;stroke:#000;stroke-width:2.61px;"/><path d="M64.585,286.194c-0.059,0.023 -0.178,-16.868 -1.03,-26.859" style="fill:none;stroke:#000;stroke-width:2.61px;"/></svg>